<svg xmlns="http://www.w3.org/2000/svg" width="1440" height="800" fill="none">
    <path fill="#F0F0F0"
        d="M720.322 735.511c200.105 0 362.318-93.652 362.318-209.177 0-115.526-162.213-209.178-362.318-209.178S358 410.808 358 526.334c0 115.525 162.217 209.177 362.322 209.177Z" />
    <path fill="#E0E0E0"
        d="M501.469 569.086c62.733 0 113.588-28.159 113.588-62.894 0-34.736-50.855-62.895-113.588-62.895s-113.588 28.159-113.588 62.895c0 34.735 50.855 62.894 113.588 62.894Z" />
    <path fill="#E0E0E0"
        d="m432.016 609.966 178.004 102.74a6.539 6.539 0 0 0 5.873 0L930.671 530.96a1.796 1.796 0 0 0 0-3.393l-178.004-102.74a6.505 6.505 0 0 0-5.857 0L432.016 606.573a1.798 1.798 0 0 0 0 3.393Z" />
    <path fill="#E0E0E0"
        d="M925.301 661.313c53.633 0 97.109-25.101 97.109-56.064s-43.476-56.063-97.109-56.063c-53.633 0-97.112 25.1-97.112 56.063s43.479 56.064 97.112 56.064Z" />
    <path fill="#455A64"
        d="M512.332 557.692a2.525 2.525 0 0 1-2.525-2.541v-162.44c0-.67.266-1.312.739-1.786a2.528 2.528 0 0 1 4.312 1.786v162.44a2.542 2.542 0 0 1-2.526 2.541ZM612.836 498.555a2.56 2.56 0 0 1-2.358-1.521l-49.811-126.079a2.527 2.527 0 1 1 4.701-1.856l49.811 126.003a2.527 2.527 0 0 1-2.343 3.453Z" />
    <path fill="#455A64"
        d="M606.841 483.417a2.506 2.506 0 0 1-1.826-.791l-92.699-98.085L419.8 482.2a2.528 2.528 0 0 1-2.778.703 2.512 2.512 0 0 1-1.437-1.359 2.537 2.537 0 0 1-.017-1.977c.13-.314.322-.598.565-.836l94.327-99.606a2.533 2.533 0 0 1 1.841-.791 2.52 2.52 0 0 1 1.826.791l94.524 100.032a2.51 2.51 0 0 1-.106 3.56 2.478 2.478 0 0 1-1.704.7Z" />
    <path fill="#455A64"
        d="M411.827 498.555c-.318 0-.633-.062-.928-.182a2.514 2.514 0 0 1-1.43-3.271l49.811-126.079a2.527 2.527 0 1 1 4.701 1.856L414.17 496.958a2.525 2.525 0 0 1-2.343 1.597Z" />
    <path fill="#4150F7"
        d="m609.396 479.523 6.588 17.375a2.32 2.32 0 0 1 0 .441v.32c-.19.47-.54.858-.989 1.095a4.445 4.445 0 0 1-4.016 0 1.655 1.655 0 0 1-.776-.822v-.228l-6.086-16.294 5.279-1.887ZM415.251 479.523l-6.587 17.375a2.167 2.167 0 0 0 0 .441 1.143 1.143 0 0 0 0 .32c.178.477.532.869.989 1.095a4.413 4.413 0 0 0 4.001 0c.354-.164.632-.458.776-.822v-.228l6.177-16.294-5.356-1.887ZM515.239 542.584v14.377a1.518 1.518 0 0 1-.852 1.187 4.57 4.57 0 0 1-4.123 0 1.525 1.525 0 0 1-.852-1.187v-14.377a6.17 6.17 0 0 1 5.827 0ZM607.434 376.797c0-3.818-3.347-7.865-10.407-12.445-13.038-8.459-42.158-25.438-60.399-35.555a.17.17 0 0 0-.153-.137c-14.042-8.52-27.141-49.095-36.848-79.919-3.317-10.513-7.364-16.462-12.171-19.261-1.141-.654-5.355-2.967-6.299-3.53-9.524-5.72-22.045 1.141-37.624 9.676-14.362 7.851-25.575 17.907-27.826 44.608-1.385 16.249-.077 47.3 3.225 70.836 4.777 39.329 10.65 39.39 19.154 45.962 14.667 11.35 47.681 27.233 61.632 32.649 25.225 9.92 45.855-5.385 61.222-12.977a357.353 357.353 0 0 0 40.712-24.069c3.849-2.784 5.843-5.614 5.797-8.596-.046-1.171-.015-6.009-.015-7.242Z" />
    <path fill="#000"
        d="M607.434 376.797c0-3.818-3.347-7.865-10.407-12.445-13.038-8.459-42.158-25.438-60.399-35.555a.17.17 0 0 0-.153-.137c-14.042-8.52-27.141-49.095-36.848-79.919-3.317-10.513-7.364-16.462-12.171-19.261-1.141-.654-5.355-2.967-6.299-3.53-9.524-5.72-22.045 1.141-37.624 9.676-14.362 7.851-25.575 17.907-27.826 44.608-1.385 16.249-.077 47.3 3.225 70.836 4.777 39.329 10.65 39.39 19.154 45.962 14.667 11.35 47.681 27.233 61.632 32.649 25.225 9.92 45.855-5.385 61.222-12.977a357.353 357.353 0 0 0 40.712-24.069c3.849-2.784 5.843-5.614 5.797-8.596-.046-1.171-.015-6.009-.015-7.242Z"
        opacity=".25" />
    <path fill="#4150F7"
        d="M486.895 229.16c-9.448-4.959-21.726 1.78-36.909 10.103-9.722 5.34-18.014 11.653-23.05 23.475l-6.329-3.712c5.036-11.776 13.313-18.09 23.004-23.4 15.594-8.535 28.1-15.396 37.64-9.676l5.644 3.21Z" />
    <path fill="#4150F7"
        d="M597.089 364.352c-8.459-5.493-8.642-6.892-60.856-35.814a.775.775 0 0 1 .243.106c-14.027-8.55-27.111-49.095-36.818-79.904-9.874-31.31-26.32-22.243-49.643-9.463-14.393 7.835-25.605 17.907-27.888 44.608-2.282 26.7 2.663 92.805 11.776 100.869 9.935 10.984 49.811 31.401 65.74 37.67 25.225 9.919 45.855-5.386 61.221-12.978a357.471 357.471 0 0 0 40.789-24.114c8.718-6.36 7.911-12.856-4.564-20.98Z" />
    <path fill="#000"
        d="M449.985 239.277c23.323-12.78 39.77-21.847 49.643 9.463 9.707 30.824 22.822 71.4 36.849 79.92 0 0-24.084 0-58.97 18.819-36.27 19.581-41.808 38.735-43.466 37.366-9.129-7.607-14.149-74.275-11.882-100.96 2.267-26.686 13.464-36.773 27.826-44.608Z"
        opacity=".1" />
    <path fill="#455A64"
        d="m613.123 505.901-159.777-92.243 266.869-153.996 159.762 92.243-266.854 153.996Z" />
    <path fill="#263238"
        d="M453.346 413.658v184.485l8.413 4.854V476.766l142.951 82.536v126.231l8.413 4.853V505.901l-159.777-92.243Z" />
    <path fill="#000" d="m461.76 602.996 8.413-4.853V481.619l-8.413-4.853v126.23Z" />
    <path fill="#37474F"
        d="m613.123 690.386 8.413-4.853V559.302l250.043-144.275v126.231l8.398-4.853V351.904L613.123 505.901v184.485Z" />
    <path fill="#263238" d="m871.579 541.258-8.413-4.853V419.881l8.413-4.854v126.231Z" />
    <path fill="#000"
        d="M598.61 469.508c-8.17 4.701-8.17 12.339 0 17.055 8.17 4.716 21.3 4.701 29.53 0 8.231-4.701 8.155-12.354 0-17.055-8.154-4.701-21.345-4.716-29.53 0ZM480.64 413.552l58.635 33.882a3.6 3.6 0 0 0 3.301 0l43.193-24.936a1 1 0 0 0 .681-.951 1.009 1.009 0 0 0-.681-.95L527.103 386.7a3.708 3.708 0 0 0-3.301 0l-43.193 24.951c-.882.517-.882 1.369.031 1.901Z"
        opacity=".2" />
    <path fill="#000"
        d="m480.639 419.607 58.635 33.882a3.608 3.608 0 0 0 3.301 0l43.193-24.936c.913-.532.913-1.384 0-1.902l-58.665-33.897a3.722 3.722 0 0 0-3.302 0l-43.162 24.936a1.018 1.018 0 0 0-.487 1.544c.12.172.29.302.487.373Z"
        opacity=".2" />
    <path fill="#EBEBEB"
        d="m480.639 417.631 58.635 33.881a3.608 3.608 0 0 0 3.301 0l43.254-24.875c.913-.532.913-1.384 0-1.901l-58.726-33.958a3.708 3.708 0 0 0-3.302 0l-43.162 24.936a1.013 1.013 0 0 0-.487 1.544c.12.171.29.301.487.373Z" />
    <path fill="#E0E0E0"
        d="m523.833 390.776-41.017 23.688 56.46 32.635a3.72 3.72 0 0 0 3.301 0l41.078-23.689-56.551-32.634a3.708 3.708 0 0 0-3.271 0Z" />
    <path fill="#FAFAFA"
        d="m480.639 411.665 58.635 33.882a3.613 3.613 0 0 0 3.301 0l43.254-24.997a1.018 1.018 0 0 0 .487-1.544 1.018 1.018 0 0 0-.487-.373l-58.726-33.821a3.608 3.608 0 0 0-3.302 0l-43.162 24.936a1.013 1.013 0 0 0-.487 1.544c.12.171.29.302.487.373Z" />
    <path fill="#000"
        d="m546.882 383.428 31.721 18.364a4.294 4.294 0 0 0 3.895 0l102.375-59.137a1.193 1.193 0 0 0 .812-1.126 1.192 1.192 0 0 0-.812-1.126l-31.706-18.363a4.315 4.315 0 0 0-3.91 0l-102.375 59.137a1.193 1.193 0 0 0-.812 1.126 1.185 1.185 0 0 0 .812 1.125Z"
        opacity=".2" />
    <path fill="#E0E0E0"
        d="M547.977 379.122v-.715a3.926 3.926 0 0 1 1.795-3.043l93.992-54.314a3.947 3.947 0 0 1 3.591 0l29.119 16.857a3.98 3.98 0 0 1 1.795 3.043v.715a3.953 3.953 0 0 1-1.795 3.043l-93.992 54.314a3.946 3.946 0 0 1-3.591 0l-29.119-16.797a3.985 3.985 0 0 1-1.795-3.103Z" />
    <path fill="#FAFAFA"
        d="m549.771 377.373 29.059 16.857a4.036 4.036 0 0 0 3.59 0l94.054-54.314a1.097 1.097 0 0 0 .532-1.67 1.09 1.09 0 0 0-.532-.399l-29.181-16.858a3.946 3.946 0 0 0-3.59 0l-93.993 54.314a1.096 1.096 0 0 0 .061 2.07Z" />
    <path fill="#EBEBEB"
        d="M626.878 479.246c7.196-7.349 11.426-25.712 4.397-31.539h-35.707c-7.029 5.827-2.8 24.175 4.396 31.523l.198.213.244.244.654.578.167.137.548.411c.304.213.624.411.928.593a23.715 23.715 0 0 0 21.467 0c.322-.183.632-.386.928-.608l.517-.381.213-.167c.213-.183.426-.365.624-.563l.289-.274.137-.167Z" />
    <path fill="#FAFAFA"
        d="M598.61 445.364c-8.17 4.701-8.17 12.338 0 17.054 8.17 4.717 21.3 4.702 29.53 0 8.231-4.701 8.155-12.353 0-17.054-8.154-4.702-21.345-4.717-29.53 0Z" />
    <path fill="#EBEBEB"
        d="M604.421 448.696c-4.96 2.875-4.96 7.516 0 10.376a19.785 19.785 0 0 0 17.968 0c4.96-2.86 4.96-7.501 0-10.376a19.891 19.891 0 0 0-17.968 0Z" />
    <path fill="#E0E0E0"
        d="M622.388 453.626a19.88 19.88 0 0 0-17.968 0 8.32 8.32 0 0 0-3.043 2.723 8.32 8.32 0 0 0 3.043 2.723 19.772 19.772 0 0 0 17.968 0 8.127 8.127 0 0 0 3.042-2.723 8.127 8.127 0 0 0-3.042-2.723Z" />
    <path fill="#4150F7"
        d="M605.517 456.348a40.588 40.588 0 0 1-6.496-8.642c-3.043-5.309-3.561-12.414-2.009-13.297 1.552-.882 7.866 6.223 7.866 6.223a38.767 38.767 0 0 1-.669-9.129c.273-4.731 1.414-9.022 2.769-9.889 1.354-.867 4.396 5.097 5.69 9.418a119.276 119.276 0 0 1 2.069 7.881 68.555 68.555 0 0 1 2.327-9.95c1.522-4.489 3.043-5.508 4.123-5.052 1.081.457 1.841 2.526 2.161 8.505a58.54 58.54 0 0 1-.274 8.55s2.236-2.449 4.701-4.822c2.723-2.602 3.88-3.043 4.656-2.465.775.578.988 4.564-3.211 12.171a42.59 42.59 0 0 1-7.941 10.452s-5.827 3.804-15.762.046ZM761.4 369.432l7.607-91.65a8.642 8.642 0 0 0-3.788-7.607 9.596 9.596 0 0 0-8.672.152l-100.413 57.951a11.044 11.044 0 0 0-4.899 7.744l-7.607 91.634a8.69 8.69 0 0 0 3.773 7.607 9.619 9.619 0 0 0 8.687-.168l100.413-57.935a11.083 11.083 0 0 0 4.899-7.728Z" />
    <path fill="#fff"
        d="m761.4 369.432 7.607-91.65a8.642 8.642 0 0 0-3.788-7.607 9.596 9.596 0 0 0-8.672.152l-100.413 57.951a11.044 11.044 0 0 0-4.899 7.744l-7.607 91.634a8.69 8.69 0 0 0 3.773 7.607 9.619 9.619 0 0 0 8.687-.168l100.413-57.935a11.083 11.083 0 0 0 4.899-7.728Z"
        opacity=".5" />
    <path fill="#4150F7"
        d="m761.401 369.432 7.607-91.65a8.642 8.642 0 0 0-3.789-7.607 9.59 9.59 0 0 0-8.672.152l-100.412 57.951a10.016 10.016 0 0 0-3.256 3.286l15.594 9.007v87.389l88.029-50.815a11.08 11.08 0 0 0 4.899-7.713Z" />
    <path fill="#fff"
        d="m761.401 369.432 7.607-91.65a8.642 8.642 0 0 0-3.789-7.607 9.59 9.59 0 0 0-8.672.152l-100.412 57.951a10.016 10.016 0 0 0-3.256 3.286l15.594 9.007v87.389l88.029-50.815a11.08 11.08 0 0 0 4.899-7.713Z"
        opacity=".8" />
    <path fill="#4150F7"
        d="m652.04 432.539 7.607-91.634a11.036 11.036 0 0 1 4.899-7.744l100.413-57.95c2.48-1.43 4.29-.274 4.062 2.571l-7.607 91.65a11.082 11.082 0 0 1-4.899 7.744l-100.413 57.935c-2.479 1.43-4.244.273-4.062-2.572Z" />
    <path fill="#fff"
        d="m652.04 432.539 7.607-91.634a11.036 11.036 0 0 1 4.899-7.744l100.413-57.95c2.48-1.43 4.29-.274 4.062 2.571l-7.607 91.65a11.082 11.082 0 0 1-4.899 7.744l-100.413 57.935c-2.479 1.43-4.244.273-4.062-2.572Z"
        opacity=".65" />
    <path fill="#4150F7"
        d="M703.829 359.009c.396-4.686 3.682-10.209 7.349-12.339 3.666-2.13 6.329 0 5.933 4.641-.396 4.64-3.667 10.223-7.333 12.353-3.667 2.13-6.329.046-5.949-4.655ZM706.188 386.715l24.677-14.331-4.199-2.419-24.662 14.331 4.184 2.419Z" />
    <path fill="#fff" d="m706.188 386.715 24.677-14.331-4.199-2.419-24.662 14.331 4.184 2.419Z"
        opacity=".85" />
    <path fill="#4150F7"
        d="m742.305 414.465-30.033 17.344a3.723 3.723 0 0 1-1.932.441 3.779 3.779 0 0 1-1.628-.41l-13.221-7.607h-.076a3.934 3.934 0 0 1-1.704-3.043v-.7c0-1.141.776-1.613 1.78-1.035l7.987 4.565 1.78 1.034-.395-2.023-2.8-38.735 4.184 2.434 24.677-14.332 12.795 39.024a3.137 3.137 0 0 1-1.414 3.043Z" />
    <path fill="#fff"
        d="m742.307 414.465-30.033 17.344a3.723 3.723 0 0 1-1.932.441 3.779 3.779 0 0 1-1.628-.41l-13.221-7.607h-.076a3.934 3.934 0 0 1-1.704-3.043v-.7c0-1.141.776-1.613 1.78-1.035l7.987 4.565 1.78 1.034-.395-2.023-2.8-38.735 4.184 2.434 24.677-14.332 12.795 39.024a3.137 3.137 0 0 1-1.414 3.043Z"
        opacity=".5" />
    <path fill="#4150F7" d="m694.215 419.166 10.239-5.918 2.084 13.799-12.323-7.881Z" />
    <path fill="#000" d="m694.215 419.166 10.239-5.918 2.084 13.799-12.323-7.881Z" opacity=".25" />
    <path fill="#4150F7"
        d="m706.187 386.729-4.184-2.434 2.815 38.628c.228 1.111-.411 1.522-1.385.989l-7.987-4.564c-1.004-.578-1.78-.106-1.78 1.035v.699a3.945 3.945 0 0 0 1.704 3.043h.076l13.221 7.607a3.78 3.78 0 0 0 1.628.411l-4.108-45.414Z" />
    <path fill="#fff"
        d="m706.187 386.729-4.184-2.434 2.815 38.628c.228 1.111-.411 1.522-1.385.989l-7.987-4.564c-1.004-.578-1.78-.106-1.78 1.035v.699a3.945 3.945 0 0 0 1.704 3.043h.076l13.221 7.607a3.78 3.78 0 0 0 1.628.411l-4.108-45.414Z"
        opacity=".25" />
    <path fill="#000"
        d="m593.818 412.062 4.625 2.662 36.484-21.36 4.031-4.747-8.398 2.221-36.742 21.224Z"
        opacity=".2" />
    <path fill="#FFA8A7"
        d="m630.895 387.597 7.774-1.521a.238.238 0 0 1 .144.019.252.252 0 0 1 .108.099.236.236 0 0 1 .031.142.238.238 0 0 1-.055.135l-5.294 5.964-2.708-4.838Z" />
    <path fill="#263238"
        d="M638.898 386.471a.238.238 0 0 0 .055-.135.236.236 0 0 0-.031-.142.252.252 0 0 0-.108-.099.238.238 0 0 0-.144-.019l-1.522.289a1.317 1.317 0 0 1 .624 1.247v.137l1.126-1.278Z" />
    <path fill="#4150F7"
        d="m604.697 409.049.639-.365.776-.426 27.492-15.822a3.519 3.519 0 0 0-.213-2.571 3.656 3.656 0 0 0-2.51-2.267l-27.553 15.807-1.521.837c1.049-.426 3.803 4.305 2.89 4.807Z" />
    <path fill="#EBEBEB"
        d="m607.069 407.68 1.415-.822c.411-.228.182-1.247-.32-2.312-.639-1.415-1.917-2.784-2.48-2.495l-1.034.608-.38.213c.562-.289 1.84 1.08 2.479 2.495.472 1.02.715 2.009.35 2.282l-.03.031Z" />
    <path fill="#4150F7"
        d="M607.419 407.466c.974-.518-1.81-5.325-2.799-4.808l-1.415.822c.974-.518 3.758 4.29 2.784 4.807l1.43-.821Z" />
    <path fill="#EBEBEB"
        d="m604.696 409.049 1.415-.791c.959-.502-1.704-5.157-2.708-4.853l-1.415.821c.867-.41 3.621 4.321 2.708 4.823Z" />
    <path fill="#000"
        d="m638.928 386.198-.258-.122-5.645 3.043-29.165 16.735c0-.091-.091-.091-.122 0 .822 1.294 1.446 2.922.898 3.195l.639-.365.776-.426 27.552-15.822 5.28-5.964a.258.258 0 0 0 .045-.274Z"
        opacity=".15" />
    <path fill="#F28F8F"
        d="m598.688 412.471 5.948-3.423c.426-.213.198-1.232-.289-2.282-.639-1.43-1.917-2.8-2.48-2.526l-5.979 3.423c-1.187.685-.091 3.271 1.233 4.412a1.408 1.408 0 0 0 1.567.396Z" />
    <path fill="#000"
        d="M599.038 410.616a4.258 4.258 0 0 0-2.435-2.936.913.913 0 0 0-.882.122c-.898.821.137 3.194 1.4 4.275a1.412 1.412 0 0 0 1.521.395c.457-.258.624-.943.396-1.856Z"
        opacity=".1" />
    <path fill="#455A64"
        d="M810.176 128.138a1.95 1.95 0 0 0-.959-.243h-17.389l-7.182 4.138v24.844l7.182-4.092 6.192-7.151v17.496l7.181-4.138 18.804-20.235a1.904 1.904 0 0 0 .429-1.558 1.929 1.929 0 0 0-.916-1.332l-13.342-7.729Z" />
    <path fill="#37474F"
        d="m798.051 163.13 7.181-4.139 18.804-20.234a1.904 1.904 0 0 0-1.445-3.15h-17.359l-7.181 4.154v23.369Z" />
    <path fill="#37474F"
        d="M805.277 115.1a15.211 15.211 0 0 0-6.877-11.928 15.212 15.212 0 0 0-13.784 0l-52.351 29.972a15.211 15.211 0 0 0-6.892 11.943v56.52a15.211 15.211 0 0 0 6.892 11.928 15.214 15.214 0 0 0 13.784 0l53.006-30.428c6.192-3.53 6.252-7.075 6.252-11.472l-.03-56.535Z" />
    <path fill="#263238"
        d="M725.373 201.606a15.22 15.22 0 0 0 6.892 11.928 15.454 15.454 0 0 0 6.245 1.634c2.173.1 4.343-.26 6.367-1.056-3.24 1.217-5.72-.639-5.72-4.564v-56.52a14.095 14.095 0 0 1 2.023-6.786l-13.784-7.941a14.056 14.056 0 0 0-2.008 6.785l-.015 56.52Z" />
    <path fill="#455A64"
        d="M805.065 113.228c-.807-2.937-3.484-3.865-6.664-2.024L746.034 141.1a13.693 13.693 0 0 0-4.853 5.142l-13.693-7.926a13.831 13.831 0 0 1 4.854-5.158l52.336-29.972a15.31 15.31 0 0 1 13.799 0 15.206 15.206 0 0 1 6.588 10.042Z" />
    <path fill="#4150F7" d="m779.078 183.303-12.353 7.135v-49.445l12.353-7.136v49.446Z" />
    <path fill="#4150F7" d="M791.448 143.201v16.477l-37.077 21.406v-16.477l37.077-21.406Z" />
    <path fill="#E6E6E6"
        d="M917.115 184.264c12.171.334 15.625 5.203 22.958 15.685 7.333 10.483 32.284 50.207 32.284 50.207l35.343 13.571-4.66 20.615s-47.236-8.003-50.324-9.814c-3.088-1.81-26.092-39.708-26.092-39.708l-9.509-50.556Z" />
    <path fill="#F0F0F0"
        d="M907.803 184.598c11.502-2.876 16.583 3.544 20.417 10.649 17.42 31.95 24.495 223.646 24.495 223.646s-38.857 15.504-67.688-2.692l22.776-231.603Z" />
    <path fill="#B16668"
        d="m944.85 514.089-7.272 27.674s-8.383 4.944-15.61.076c-5.736-3.864-5.386-8.444-5.386-8.444l.335-4.169.822-32.177 27.111 17.04Z" />
    <path fill="#263238"
        d="M909.857 548.352c-1.993 4.427-3.134 17.359-3.134 17.359s1.217 4.762 7.835 8.976l6.435-17.101-11.136-9.234Z" />
    <path fill="#000" d="m914.559 574.746 16.72-2.297 6.359-13.312-19.367 5.751-3.712 9.858Z" />
    <path fill="#263238"
        d="m938.84 536.97.898-3.378c2.54.137 2.312 5.158 2.495 6.619.563 4.183.989 8.367 1.628 12.536a78.032 78.032 0 0 0 3.21 13.586c1.521 4.214 2.404 8.702 4.975 12.43 2.571 3.727 7.089 5.933 10.741 8.444a6.178 6.178 0 0 1 2.312 2.327c.837 1.857-.334 4.002-1.78 5.417a17.351 17.351 0 0 1-9.265 4.473 35.757 35.757 0 0 1-10.422 0 37.24 37.24 0 0 1-17.1-6.329c-4.899-3.5-5.964-10.422-6.755-16.021-.639-4.564-.244-9.874-2.13-14.149-1.887-4.275-7.273-9.889-7.79-14.514a22.041 22.041 0 0 1 2.404-11.319c1.963-3.758 3.378-8.551 4.656-7.866l-.229 2.739c0-.198 1.263 5.264 9.129 7.211 3.697.928 10.68.898 13.023-2.206Z" />
    <path fill="#B16668"
        d="M926.928 566.941c.213 5.112 0 7.226 0 9.539.213 4.229 1.339 7.166 2.297 11.274a25.837 25.837 0 0 0 1.734 4.898c.792 1.826 2.267 4.291 1.4 6.086a6.955 6.955 0 0 1-1.734 2.145 16.232 16.232 0 0 1-11.411 3.88 12.18 12.18 0 0 1-6.207-1.78c-3.667-2.404-5.112-6.786-7.075-10.483-2.145-4.001-.897-6.085-1.247-10.482a154.47 154.47 0 0 0-2.267-17.329c7.926-9.067 14.59-.274 24.51 2.252Z" />
    <path fill="#4150F7"
        d="M939.067 314.055c11.882 41.412 31.949 111.792 26.32 133.701-4.26 16.415-22.821 76.359-22.821 76.359-7.166 1.004-21.817 2.601-27.522-9.95-1.445-20.372-6.466-158.698-6.466-158.698l30.489-41.412Z" />
    <path fill="#fff"
        d="M939.067 314.055c11.882 41.412 31.949 111.792 26.32 133.701-4.26 16.415-22.821 76.359-22.821 76.359-7.166 1.004-21.817 2.601-27.522-9.95-1.445-20.372-6.466-158.698-6.466-158.698l30.489-41.412Z"
        opacity=".4" />
    <path fill="#000"
        d="M908.641 355.39a213.284 213.284 0 0 0 20.98-22.943s-1.522 9.813-15.047 23.339c0 0 22.669 87.313 22.532 101.249-.137 13.936-7.607 63.899-7.607 63.899L908.641 355.39Z"
        opacity=".25" />
    <path fill="#4150F7"
        d="M939.068 314.055c-9.692 20.097-13.495 28.13-30.428 41.412 0 0 20.706 86.051 21.619 102.756 1.521 27.765-2.054 89.915-3.332 108.795-3.21 4.199-18.85 4.914-23.78 1.339-2.251-8.733-9.813-39.465-13.357-67.033-2.617-20.371.73-38.598 1.156-43.938-10.97-27.979-35.601-68.813-44.608-98.07a74.218 74.218 0 0 1-2.784-15.533c-2.008-18.546 5.584-32.71 10.041-42.599l85.473 12.871Z" />
    <path fill="#fff"
        d="M939.068 314.055c-9.692 20.097-13.495 28.13-30.428 41.412 0 0 20.706 86.051 21.619 102.756 1.521 27.765-2.054 89.915-3.332 108.795-3.21 4.199-18.85 4.914-23.78 1.339-2.251-8.733-9.813-39.465-13.357-67.033-2.617-20.371.73-38.598 1.156-43.938-10.97-27.979-35.601-68.813-44.608-98.07a74.218 74.218 0 0 1-2.784-15.533c-2.008-18.546 5.584-32.71 10.041-42.599l85.473 12.871Z"
        opacity=".5" />
    <path fill="#263238"
        d="M900.745 596.045c-1.202 4.686-.107 17.603-.107 17.603s1.993 4.472 9.22 7.5l3.423-17.922-12.536-7.181Z" />
    <path fill="#000" d="m909.857 621.149 16.066-5.127 3.971-14.165-18.059 8.946-1.978 10.346Z" />
    <path fill="#37474F"
        d="m926.867 579.843.122-3.362c2.161 1.08 6.801 18.622 13.16 30.702 5.812 11.015 17.466 17.222 21.224 22.03 5.02 6.435-4.929 14.575-20.767 11.045-7.851-1.765-19.779-6.907-22.913-12.247-3.134-5.34-4.199-15.108-6.8-19.033-2.602-3.925-8.855-8.474-10.148-12.932a24.234 24.234 0 0 1 .137-12.278c1.278-4.031 1.217-8.17 3.24-8.504l.305 3.164c1.05 2.176 5.157 4.671 13.16 5.188 3.819.228 7.516-.274 9.28-3.773Z" />
    <path fill="#263238"
        d="m898.843 149.957-7.988 27.005c-22.212 0-35.935-21.635-35.935-43.847 0-22.304 14.21-40.941 36.514-40.941h7.241c22.304 0 40.394 14.803 40.394 37.122 0 14.529-18.014 20.661-40.226 20.661Z" />
    <path fill="#263238"
        d="M943.237 108.665a16.177 16.177 0 0 0 2.359-9.28 10.797 10.797 0 0 0-4.671-8.2c-4.154-2.648-9.904-1.4-13.693 1.657a11.244 11.244 0 0 0-12.019-10.025c-3.697.289-6.983 2.343-10.178 4.199a53.45 53.45 0 0 1-17.359 5.34l6.8 2.617a11.15 11.15 0 0 0-1.186 9.721c.292.658.648 1.285 1.065 1.872a45.648 45.648 0 0 0 41.595 20.128 13.333 13.333 0 0 0 6.451-1.826 10.455 10.455 0 0 0 2.845-3.043 11.503 11.503 0 0 0 1.993-7.074 7.437 7.437 0 0 0-4.002-6.086Z" />
    <path fill="#455A64"
        d="m881.499 187.779-14.56 1.522c-9.661 2.358-14.027 6.618-15.016 15.214-.457 3.986-2.876 14.605.502 27.917 3.042 12.05 11.228 41.55 11.228 41.55s-10.574 26.518-15.534 40.074c34.353 22.41 76.755 13.555 90.995 0-1.202-12.811-5.735-24.754-6.755-36.179 0 0 .73-17.862 2.145-25.605 10.878-11.852 9.479-23.202 4.565-32.345-9.007-16.903-22.593-31.737-26.975-31.722l-30.595-.426Z" />
    <path fill="#E0E0E0"
        d="M907.605 178.178c4.352 1.065 7.744 2.83 9.509 6.085 1.765 3.256 15.534 24.936 15.534 24.936s-11.106-14.621-19.474-19.048a14.302 14.302 0 0 0-5.569-1.856v-10.117Z" />
    <path fill="#FAFAFA"
        d="M881.498 187.777s15.214 31.721 17.922 53.127c2.708 21.406-3.043 94.434-3.043 117.605 0 27.933.092 74.031.092 74.031s-17.36 0-29.287-3.408c-8.718-2.48-19.048-6.937-25.301-14.407 0 0-1.704-57.175 1.886-84.408 3.393-25.864 17.162-57.722 17.162-57.722l-17.649-67.276s.822-11.563 11.7-14.804c10.3-3.103 26.518-2.738 26.518-2.738Z" />
    <path fill="#EBEBEB"
        d="m867.182 201.623-18.014 26.366 11.7 44.577s-10.863 22.928-14.864 45.125c10.848-30.687 20.645-39.891 20.645-39.891l-6.359-25.955s2.236-8.17 5.355-22.106c3.119-13.936 2.602-22.015 1.537-28.116Z" />
    <path fill="#B16668"
        d="M830.988 384.799c2.647 2.48 4.092 5.812 6.815 10.741 2.724 4.929 16.158 5.401 17.223-8.459.806-10.437-2.845-13.966-10.163-22.091-7.683-8.55-10.65-9.95-10.3-17.876.198-3.91 6.085-60.506 6.085-60.506l19.368-53.356s6.998-24.936 3.484-42.31c0 0-12.552-1.019-21.421 7.835-10.361 10.346-22.091 61.495-24.678 71.826a128.762 128.762 0 0 0-4.822 40.286c.608 16.599.669 51.287 2.875 58.939 2.206 7.653 8.398 8.292 15.534 14.971Z" />
    <path fill="#F0F0F0"
        d="M864.367 188.645s-13.342-.836-21.147 5.554c-7.805 6.389-12.658 24.251-18.394 42.097-5.736 17.846-10.847 35.235-12.734 47.741-1.521 10.468 1.521 65.725 1.521 65.725s8.885 3.225 20.95-2.647l7.47-60.446 22.365-60.673a57.815 57.815 0 0 0-.031-37.351Z" />
    <path fill="#B16668"
        d="M916.354 112.561c10.163 1.049 18.652 11.851 18.089 36.361-.486 20.782-7.226 25.864-10.649 27.385-3.424 1.522-9.905 1.719-16.234.655v11.334s7.303 16.096 4.199 21.847c-17.328-7.15-30.26-22.364-30.26-22.364v-25.682s-4.276 5.067-11.274.426c-6.998-4.64-7.272-16.157-3.195-20.295 4.077-4.138 12.841-2.815 14.469 2.891 0 0 6.085-.153 17.298-8.14a44.124 44.124 0 0 0 17.557-24.418Z" />
    <path fill="#263238"
        d="M906.222 140.949a2.807 2.807 0 0 1-.666 2.074 2.803 2.803 0 0 1-1.951.969 2.88 2.88 0 0 1-2.811-1.551 2.872 2.872 0 0 1 .378-3.189 2.877 2.877 0 0 1 5.05 1.697Z" />
    <path fill="#9A4A4D"
        d="m909.141 160.393 8.246 2.632a4.241 4.241 0 0 1-5.355 2.951 4.561 4.561 0 0 1-2.891-5.583Z" />
    <path fill="#263238"
        d="m930.732 134.529-5.599-3.879a3.266 3.266 0 0 1 3.445-1.469c.435.091.847.27 1.21.525a3.55 3.55 0 0 1 .944 4.823ZM928.753 140.416a2.774 2.774 0 0 1-3.242 2.755 2.773 2.773 0 0 1-2.223-2.094 2.772 2.772 0 0 1 2.559-3.4 2.809 2.809 0 0 1 2.661 1.664c.152.338.235.704.245 1.075Z" />
    <path fill="#9A4A4D"
        d="m914.711 138.834.441 16.644 8.763-2.708-9.204-13.936ZM907.605 176.96c-6.694-.867-20.432-5.949-22.578-11.396a14.06 14.06 0 0 0 4.823 6.938c4.108 3.53 17.755 7.485 17.755 7.485v-3.027Z" />
    <path fill="#4150F7"
        d="m1019.35 243.279-66.148 31.478-18.196 78.717 1.476 1.568 62.879-31.63 21.469-78.566-1.48-1.567Z" />
    <path fill="#000" d="m954.693 276.338-18.211 78.702-1.476-1.567 18.196-78.717 1.491 1.582Z"
        opacity=".35" />
    <path fill="#000" d="m1020.83 244.846-66.136 31.493-18.212 78.702 62.88-31.63 21.468-78.565Z"
        opacity=".25" />
    <path fill="#000" d="M989.609 307.406c.609 1.522 5.675 4.96 13.021 4.352l1.23-4.565-14.251.213Z"
        opacity=".2" />
    <path fill="#000"
        d="m1000.9 260.974.54-2.632c.31-1.522-3.571-.7-8.667 1.704l-9.737 4.564c-5.097 2.404-9.463 5.538-9.768 6.998l-.547 2.632 28.179-13.266Z"
        opacity=".1" />
    <path fill="#37474F"
        d="M1004.91 248.633c.2-.913-1.38-.806-3.51.243l-3.849 1.887s1.141-5.705-7.424-1.978c-8.566 3.728-10.422 10.315-10.422 10.315l-4.123 2.054c-2.282 1.126-4.336 2.8-4.564 3.712l-.487 1.674 34.069-16.203s.13-.791.31-1.704Z" />
    <path fill="#37474F"
        d="M1001.29 254.096c-3.117 1.414-4.425 2.114-4.882 4.366a54.547 54.547 0 0 0-.745 4.412l-15.092 7.181s.73-3.256.958-4.564c.228-1.309-.274-1.887-2.678-.73l-.943-2.648 24.342-11.349-.96 3.332Z" />
    <path fill="#37474F"
        d="M1001.78 261.018s.24-1.187.55-2.632c.3-1.445-3.578-.7-8.674 1.704l-9.753 4.564c-5.081 2.404-9.448 5.538-9.752 6.999l-.547 2.632 28.176-13.267Z" />
    <path fill="#B16668"
        d="M1013.46 271.773s-2.34 8.642-2.95 10.818c-.61 2.175-11.438 7.181-16.869 7.865-10.376 1.293-11.548 3.545-9.052 10.909 2.297 6.785 9.052 9.356 18.421 8.246 4.38-.518 10.45-4.412 12.84-11.213 3.05-8.672 1.4-17.953 2.6-23.019 1.21-5.066-2.34-6.618-4.99-3.606Z" />
    <path fill="#455A64" d="m417.5 182.741 3.088 1.78 77.212-44.577-3.089-1.78-77.211 44.577Z" />
    <path fill="#4150F7" d="m494.711 138.165-74.123 42.797v-64.249l74.123-42.797v64.249Z" />
    <path fill="#fff" d="m494.713 138.165-74.123 42.797v-64.249l74.123-42.797v64.249Z" opacity=".8" />
    <path fill="#37474F"
        d="m500.888 66.781-83.327 48.137v74.96l83.388-48.152-.061-74.945Zm-3.043 73.164-77.242 44.578v-67.809l77.196-44.562.046 67.793Z" />
    <path fill="#263238" d="m497.799 139.943-3.088-1.78V73.914l3.088-1.795v67.824Z" />
    <path fill="#455A64" d="M500.889 66.78 497.8 65l-83.388 48.137 3.089 1.78 83.388-48.137Z" />
    <path fill="#263238" d="m414.412 113.137 3.089 1.78v74.959l-3.089-1.78v-74.959Z" />
    <path fill="#4150F7"
        d="M480.168 127.362c2.891-1.674 5.218-.32 5.218 3.042a11.483 11.483 0 0 1-5.218 9.022c-2.875 1.659-5.203.32-5.203-3.043a11.507 11.507 0 0 1 5.203-9.021Z" />
    <path fill="#000"
        d="m438.04 113.776 39.253-22.67c1.095-.638 1.977-.121 1.977 1.127v.121a4.358 4.358 0 0 1-1.977 3.423l-39.253 22.7c-1.08.639-1.978.121-1.978-1.141v-.137a4.433 4.433 0 0 1 1.978-3.423Z"
        opacity=".2" />
    <g fill="#000" opacity=".2">
        <path
            d="m431.832 131.638 51.728-29.82c1.095-.639 1.978-.349 1.978.639a3.934 3.934 0 0 1-1.978 2.922l-51.728 29.849c-1.08.639-1.962.35-1.947-.654a4.012 4.012 0 0 1 1.947-2.936ZM431.832 138.774l51.728-29.835c1.095-.624 1.978-.335 1.978.639a3.977 3.977 0 0 1-1.978 2.936l-51.728 29.85c-1.08.624-1.962.335-1.947-.654a3.97 3.97 0 0 1 1.947-2.936ZM431.832 145.894l51.728-29.835c1.095-.624 1.978-.335 1.978.654a3.921 3.921 0 0 1-1.978 2.921l-51.728 29.85c-1.08.639-1.962.335-1.947-.654a4.012 4.012 0 0 1 1.947-2.936Z" />
    </g>
    <path fill="#000"
        d="M470.903 142.606c-.4.212-.842.331-1.293.35-1.111 0-1.004-1.126-.974-1.902 0-.349-.472-.897-.715-.426-.669 1.202-1.521 2.328-2.252 3.5-.441.715-1.278 2.343-2.343 2.114-.426-.091-.578-.562-.578-1.156a5.771 5.771 0 0 0 .685-3.225c0-.335-.609-.746-.776-.289a9.72 9.72 0 0 0-.669 3.043 19.58 19.58 0 0 1-1.674 2.479c-.365.472-.669 1.005-1.065 1.522-.107.106-.289.38-.441.395-.152.016-.32-.152-.365-.395a2.541 2.541 0 0 1 .167-1.05v-.091c0-.35-.456-.867-.639-.426a15.523 15.523 0 0 1-3.043 5.051l-.198.167v-.624a5.41 5.41 0 0 0-.243-1.399c-.091-.228-.487-.578-.7-.274a23.68 23.68 0 0 1-3.438 4.747 5.89 5.89 0 0 1-.715.502c-.244-.122.121-1.385.182-1.522.137-.563.32-1.11.502-1.658.19-.439.328-.898.411-1.369 0-.426-.654-1.08-.791-.502 0 .228-.259.791-.472 1.521a37.835 37.835 0 0 1-2.997 4.686 11.33 11.33 0 0 1-4.032 3.88c-.456.243-1.323.608-1.825.243s-.457-.989-.472-1.521c-.02-1.21.144-2.416.487-3.576a21.315 21.315 0 0 0 4.473-3.164 15.892 15.892 0 0 0 3.393-3.743c.456-.837.73-2.191-.381-2.662-.776-.335-1.765.213-2.419.578a10.659 10.659 0 0 0-2.419 1.962 14.244 14.244 0 0 0-3.043 5.645c-.091.319-.228.745-.349 1.217a9.555 9.555 0 0 1-5.691.958c-.106 0-.152.229 0 .244a9.27 9.27 0 0 0 5.569-.533c-.502 2.161-.776 5.021 1.232 5.584 2.008.563 4.443-1.963 5.523-3.423a21.938 21.938 0 0 0 2.16-3.484c.056-.09.117-.176.183-.259 0 1.004.198 1.734 1.186 1.521.989-.213 1.887-1.521 2.435-2.327.547-.807.989-1.522 1.521-2.237.091.913.244 1.932 1.111 1.765.867-.167 1.521-1.673 1.978-2.282.456-.609.684-1.065.973-1.613.061.1.127.197.198.289.715.761 1.521 0 2.039-.669.654-.852 1.384-1.765 2.008-2.739a1.7 1.7 0 0 0 .852.959c1.111.517 2.145-.396 2.784-1.202a25.033 25.033 0 0 0 2.069-3.347 1.62 1.62 0 0 0 .761 1.065 2.57 2.57 0 0 0 2.602-.167c.213-.168-.107-.913-.472-.731Zm-24.175 4.321c.502-.259 1.521-.7 1.628.167a2.76 2.76 0 0 1-.7 1.522 18.092 18.092 0 0 1-3.043 3.195 25.822 25.822 0 0 1-3.758 2.875 12.181 12.181 0 0 1 5.873-7.759Z"
        opacity=".3" />
    <path fill="#455A64" d="m539.211 182.741 3.088 1.78 77.212-44.577-3.089-1.78-77.211 44.577Z" />
    <path fill="#4150F7" d="m616.422 138.165-74.123 42.797v-64.249l74.123-42.797v64.249Z" />
    <path fill="#fff" d="m616.422 138.165-74.123 42.797v-64.249l74.123-42.797v64.249Z" opacity=".8" />
    <path fill="#37474F"
        d="m622.599 66.781-83.328 48.137v74.96l83.389-48.152-.061-74.945Zm-3.043 73.164-77.242 44.578v-67.809l77.196-44.562.046 67.793Z" />
    <path fill="#263238" d="m619.51 139.943-3.088-1.78V73.914l3.088-1.795v67.824Z" />
    <path fill="#455A64" d="M622.6 66.78 619.511 65l-83.388 48.137 3.089 1.78L622.6 66.78Z" />
    <path fill="#263238" d="m536.123 113.137 3.089 1.78v74.959l-3.089-1.78v-74.959Z" />
    <path fill="#4150F7"
        d="M601.894 127.362c2.876-1.674 5.203-.32 5.203 3.042a11.508 11.508 0 0 1-5.203 9.022c-2.89 1.659-5.218.32-5.218-3.043a11.483 11.483 0 0 1 5.218-9.021Z" />
    <path fill="#000"
        d="m559.752 113.776 39.267-22.67c1.08-.638 1.963-.121 1.963 1.127v.121a4.373 4.373 0 0 1-1.963 3.423l-39.267 22.7c-1.081.639-1.963.121-1.963-1.141v-.137a4.409 4.409 0 0 1 1.963-3.423Z"
        opacity=".2" />
    <g fill="#000" opacity=".2">
        <path
            d="m553.545 131.638 51.728-29.82c1.095-.639 1.978-.349 1.978.639a3.925 3.925 0 0 1-1.978 2.922l-51.728 29.849c-1.08.639-1.962.35-1.947-.654a3.998 3.998 0 0 1 1.947-2.936ZM553.545 138.774l51.728-29.835c1.095-.624 1.978-.335 1.978.639a3.977 3.977 0 0 1-1.978 2.936l-51.728 29.85c-1.08.624-1.962.335-1.947-.654a3.97 3.97 0 0 1 1.947-2.936ZM553.545 145.894l51.728-29.835c1.095-.624 1.978-.335 1.978.654a3.925 3.925 0 0 1-1.978 2.921l-51.728 29.85c-1.08.639-1.962.335-1.947-.654a3.998 3.998 0 0 1 1.947-2.936Z" />
    </g>
    <path fill="#000"
        d="M592.615 142.606a2.93 2.93 0 0 1-1.294.35c-1.095 0-1.004-1.126-.973-1.902 0-.349-.472-.897-.715-.426-.67 1.202-1.522 2.328-2.252 3.5-.426.715-1.278 2.343-2.328 2.114-.441-.091-.593-.562-.593-1.156a5.762 5.762 0 0 0 .684-3.225c0-.335-.593-.746-.775-.289a9.694 9.694 0 0 0-.67 3.043 19.573 19.573 0 0 1-1.673 2.479c-.35.472-.67 1.005-1.065 1.522-.092.106-.289.38-.442.395-.152.016-.319-.152-.365-.395a2.526 2.526 0 0 1 .168-1.05.232.232 0 0 0 0-.091c0-.35-.457-.867-.639-.426a15.523 15.523 0 0 1-3.043 5.051l-.198.167v-.624a5.41 5.41 0 0 0-.243-1.399c-.092-.228-.487-.578-.7-.274a23.07 23.07 0 0 1-3.439 4.747 4.885 4.885 0 0 1-.715.502c-.228-.122.137-1.385.183-1.522.137-.563.319-1.11.502-1.658.189-.439.327-.898.411-1.369 0-.426-.654-1.08-.791-.502 0 .228-.259.791-.472 1.521a36.397 36.397 0 0 1-2.997 4.686 11.338 11.338 0 0 1-4.032 3.88c-.456.243-1.323.608-1.826.243-.502-.365-.441-.989-.471-1.521a12.984 12.984 0 0 1 .487-3.576 21.315 21.315 0 0 0 4.473-3.164 15.564 15.564 0 0 0 3.392-3.743c.457-.837.731-2.191-.38-2.662-.776-.335-1.765.213-2.419.578-.91.51-1.741 1.15-2.465 1.902a14.233 14.233 0 0 0-3.043 5.644c-.091.319-.228.745-.349 1.217a9.564 9.564 0 0 1-5.691.959c-.106 0-.152.228 0 .243a9.27 9.27 0 0 0 5.569-.533c-.502 2.161-.776 5.021 1.232 5.584 2.008.563 4.443-1.963 5.523-3.423a21.893 21.893 0 0 0 2.16-3.484c.056-.09.117-.176.183-.259 0 1.004.198 1.735 1.187 1.522.988-.213 1.886-1.522 2.449-2.328.563-.806.974-1.522 1.521-2.237.092.913.259 1.933 1.111 1.765.852-.167 1.521-1.673 1.978-2.282.456-.608.684-1.065.974-1.613.06.1.126.197.197.29.715.76 1.522 0 2.039-.67.654-.852 1.384-1.765 2.008-2.738.149.418.454.762.852.958 1.111.517 2.145-.395 2.784-1.202a24.93 24.93 0 0 0 2.069-3.347 1.62 1.62 0 0 0 .761 1.065 2.571 2.571 0 0 0 2.602-.167c.258-.107-.076-.852-.441-.67Zm-24.175 4.321c.517-.259 1.521-.7 1.627.167a2.843 2.843 0 0 1-.684 1.522 18.788 18.788 0 0 1-3.043 3.195 25.822 25.822 0 0 1-3.758 2.875 12.16 12.16 0 0 1 5.858-7.759Z"
        opacity=".3" />
</svg>