<?xml version="1.0" encoding="utf-8"?>
<!-- Generator: Adobe Illustrator 27.5.0, SVG Export Plug-In . SVG Version: 6.00 Build 0)  -->
<svg version="1.1" xmlns="http://www.w3.org/2000/svg" xmlns:xlink="http://www.w3.org/1999/xlink" x="0px" y="0px"
	 viewBox="0 0 3710 3710" style="enable-background:new 0 0 3710 3710;" xml:space="preserve">
<g id="Background">
	<g>
		<g>
			<rect style="fill:#FFFFFF00;" width="3710" height="3710"/>
		</g>
	</g>
</g>
<g id="Illustration">
	<g>
		<path style="fill:#F4F7FA;" d="M1615.212,3199.485c-719.87-109.019-1304.888-789.64-1198.603-1546.135
			c90.673-645.169,656.314-1147.252,1334.628-1194.664c49.116-3.442,98.799-4.507,148.943-3.052
			c378.407,10.93,714.62,162.286,963.283,391.325c247.493,227.938,408.287,532.815,437.565,852.667
			C3378.994,2550.625,2510.572,3335.084,1615.212,3199.485z"/>
		<g>
			<path style="fill:#97A6B7;" d="M1262.366,685.486V1841.35l8.452,6.174l1302.032-18.992V684.224l-1302.032-6.09L1262.366,685.486z
				 M1858.801,1686.907l-473.431-3.754V793.61l473.431,0.019V1686.907z M2464.711,1683.026l-478.807,3.067V793.634l478.807,0.02
				V1683.026z"/>
			<path style="fill:#D8DEE8;" d="M1270.818,678.134v1169.39l1313.677-7.472V675.591L1270.818,678.134z M1868.642,1680.183
				l-474.543-3.367V786.26l474.543-0.435V1680.183z M2476.073,1675.796l-480.018,3.467V785.709l480.018-0.44V1675.796z"/>
		</g>
		<g>
			<g>
				<defs>
					<path id="SVGID_1_" d="M1841.501,2046.836c-10.602-21.366-32.697-40.273-53.544-51.385
						c-147.778-78.772-312.098,230.264-320.458,311.96c-8.36,81.697-33.939,98.355-170.723,82.124
						c-136.785-16.231-111.114,81.25-115.166,129.767c-4.052,48.516,9.154,96.905-97.037,99.611
						c-106.191,2.706-87.26,42.116-87.26,42.116s87.96,237.218,102.601,180.332c14.641-56.885,66.391-129.577,213.947-71.131
						c63.556,25.173,172.357,37.964,223.268-19.42c11.855-13.363,25.865-35.597,29.289-53.368
						c4.749-24.651-2.072-48.781-0.85-73.429c2.848-57.439,66.406-72.127,108.371-92.676c21.908-10.728,44.005-21.898,63.633-36.513
						c40.75-30.344,51.572-77.533,43.437-125.858c-3.901-23.173-11.941-49.498-7.615-73.138
						c4.648-25.395,23.44-54.551,35.263-77.541c9.272-18.03,19.236-35.667,26.453-54.667
						C1848.535,2128.278,1859.225,2082.555,1841.501,2046.836z"/>
				</defs>
				<use xlink:href="#SVGID_1_"  style="overflow:visible;fill:#D8DEE8;"/>
				<clipPath id="SVGID_00000047022424393621985760000002016705915189599616_">
					<use xlink:href="#SVGID_1_"  style="overflow:visible;"/>
				</clipPath>
				<g style="opacity:0.8;clip-path:url(#SVGID_00000047022424393621985760000002016705915189599616_);">
					<g>
						<path style="fill:#FFFFFF;" d="M943.298,2748.123c-1.212-0.09-2.202-1.062-2.28-2.308c-0.086-1.362,0.949-2.535,2.31-2.62
							c0.836-0.052,84.787-5.537,186.906-30.668c94.095-23.156,223.306-68.203,304.508-151.301
							c67.82-69.404,157.109-194.305,244.972-342.676c78.787-133.047,127.577-235.668,129.23-258.017
							c0.101-1.361,1.285-2.382,2.646-2.281c1.361,0.101,2.382,1.285,2.281,2.646c-1.933,26.143-58.995,140.423-129.906,260.169
							c-88.055,148.697-177.605,273.938-245.688,343.612c-82.036,83.95-212.2,129.358-306.947,152.667
							c-102.534,25.224-186.852,30.727-187.691,30.779C943.523,2748.133,943.41,2748.132,943.298,2748.123z"/>
					</g>
					<g>
						<path style="fill:#FFFFFF;" d="M1667.358,2244.719c-1.353,0-2.401-0.495-2.309-1.851c0.121-1.795,11.4-179.94-46.567-247.164
							c-0.891-1.033-0.782-2.398,0.251-3.289c1.033-0.891,2.589-0.679,3.48,0.355c59.292,68.76,48.265,242.968,47.766,250.381
							c-0.092,1.361-1.246,1.568-2.606,1.568C1667.369,2244.719,1667.363,2244.719,1667.358,2244.719z"/>
					</g>
					<g>
						<path style="fill:#FFFFFF;" d="M1560.568,2410.763c-1.01-0.075-1.912-0.772-2.198-1.805c-0.364-1.314,0.407-2.676,1.721-3.04
							c0.57-0.158,57.753-15.862,122.269-21.676c87.171-7.855,145.523,5.103,173.436,38.516c0.875,1.047,0.735,2.604-0.312,3.479
							c-1.048,0.874-2.604,0.735-3.479-0.312c-64.221-76.871-288.339-15.871-290.595-15.246
							C1561.128,2410.758,1560.844,2410.783,1560.568,2410.763z"/>
					</g>
					<g>
						<path style="fill:#FFFFFF;" d="M1216.66,2692.326c-0.265-0.02-0.53-0.083-0.788-0.193c-1.255-0.535-1.837-1.987-1.301-3.241
							c0.281-0.66,28.366-66.841,45.435-142.147c15.65-69.046,25.019-160.093-19.223-201.738c-0.994-0.936-1.041-2.498-0.105-3.492
							c0.935-0.994,2.499-1.042,3.492-0.105c36.891,34.726,43.835,104.2,20.639,206.492
							c-17.172,75.732-45.412,142.268-45.696,142.931C1218.688,2691.828,1217.684,2692.402,1216.66,2692.326z"/>
					</g>
					<g>
						<path style="fill:#FFFFFF;" d="M1357.14,2627.767c-1.06-0.078-1.987-0.84-2.229-1.93c-0.295-1.332,0.546-2.651,1.878-2.945
							c9.656-2.135,237.174-51.806,298.654-10.004c1.129,0.767,1.421,2.304,0.654,3.431c-0.767,1.128-2.304,1.422-3.431,0.654
							c-59.74-40.617-292.467,10.224-294.81,10.741C1357.615,2627.768,1357.375,2627.784,1357.14,2627.767z"/>
					</g>
				</g>
			</g>
		</g>
		<g>
			<g>
				<g>
					<defs>
						<path id="SVGID_00000143597810358596535620000004529374732766093207_" d="M566.305,1620.206
							c19.216-23.344,51.919-40.357,80.846-48.103c205.057-54.908,319.377,373.794,306.282,477.07s13.714,131.178,187.27,150.344
							c173.555,19.166,113.914,132.179,105.011,193.249c-8.903,61.07-39.08,117.035,91.269,150.816
							c130.349,33.781,95.677,77.018,95.677,77.018s-176.612,267.705-178.385,193.266c-1.773-74.439-44.837-179.033-243.795-149.161
							c-85.695,12.866-223.71-2.527-270.127-87.979c-10.809-19.898-21.735-51.37-20.868-74.294
							c1.203-31.801,16.542-59.641,22.098-90.427c12.948-71.743-61.323-108.098-107.252-145.501
							c-23.977-19.527-48.061-39.654-68.108-63.327c-41.621-49.15-41.457-110.521-17.559-167.862
							c11.459-27.496,28.933-57.697,30.367-88.129c1.54-32.691-13.307-74.079-21.316-105.856
							c-6.281-24.921-13.529-49.556-16.995-75.086C534.274,1718.755,534.181,1659.232,566.305,1620.206z"/>
					</defs>
					
						<linearGradient id="SVGID_00000052093393649945805420000009848770037285973425_" gradientUnits="userSpaceOnUse" x1="532.4352" y1="2197.1052" x2="1436.8397" y2="2197.1052">
						<stop  offset="0" style="stop-color:#FF9085"/>
						<stop  offset="1" style="stop-color:#FB6FBB"/>
					</linearGradient>
					
						<use xlink:href="#SVGID_00000143597810358596535620000004529374732766093207_"  style="overflow:visible;fill:url(#SVGID_00000052093393649945805420000009848770037285973425_);"/>
					<clipPath id="SVGID_00000119810164610147873870000012972775264717499312_">
						<use xlink:href="#SVGID_00000143597810358596535620000004529374732766093207_"  style="overflow:visible;"/>
					</clipPath>
					<g style="opacity:0.8;clip-path:url(#SVGID_00000119810164610147873870000012972775264717499312_);">
						<g>
							<path style="fill:#FFFFFF;" d="M1474.391,2743.63c1.522,0.237,3.023-0.68,3.476-2.197c0.496-1.657-0.445-3.402-2.102-3.897
								c-1.017-0.304-103.109-31.141-222.002-91.445c-109.551-55.566-256.19-148.227-332.639-274.115
								c-63.851-105.141-138.302-284.964-204.266-493.36c-59.149-186.871-89.979-327.574-85.614-355.645
								c0.266-1.709-0.904-3.309-2.613-3.575c-1.709-0.266-3.309,0.904-3.575,2.613c-5.107,32.835,32.595,190.307,85.832,358.497
								c66.108,208.853,140.785,389.171,204.882,494.721c77.234,127.178,224.946,220.559,335.26,276.501
								c119.379,60.538,221.919,91.502,222.94,91.808C1474.11,2743.577,1474.251,2743.608,1474.391,2743.63z"/>
						</g>
						<g>
							<path style="fill:#FFFFFF;" d="M724.222,1914.682c1.7,0,3.303-0.029,3.579-1.729c0.366-2.252,37.602-225.512,128.448-291.905
								c1.396-1.02,1.703-2.764,0.682-4.159c-1.021-1.397-2.978-1.593-4.374-0.573c-92.924,67.91-129.429,286.284-130.938,295.582
								c-0.277,1.706,0.874,2.784,2.583,2.784C724.209,1914.682,724.216,1914.682,724.222,1914.682z"/>
						</g>
						<g>
							<path style="fill:#FFFFFF;" d="M808.884,2150.115c1.269,0.198,2.582-0.405,3.232-1.599c0.826-1.519,0.265-3.421-1.254-4.247
								c-0.658-0.358-66.767-36.141-144.765-61.814c-105.388-34.687-181.155-35.413-225.201-2.156
								c-1.38,1.042-1.654,3.006-0.612,4.386c1.044,1.38,3.006,1.654,4.386,0.612c101.336-76.512,360.593,63.054,363.2,64.473
								C808.194,2149.948,808.538,2150.062,808.884,2150.115z"/>
						</g>
						<g>
							<path style="fill:#FFFFFF;" d="M1152.836,2596.372c0.332,0.052,0.678,0.05,1.028-0.012c1.702-0.302,2.838-1.927,2.536-3.63
								c-0.158-0.895-15.867-90.666-15.358-188.549c0.467-89.744,14.996-204.855,81.564-243.598c1.495-0.87,2.001-2.786,1.131-4.281
								c-0.869-1.496-2.787-2.002-4.281-1.131c-55.507,32.305-83.997,116.102-84.676,249.062
								c-0.504,98.438,15.294,188.691,15.454,189.591C1150.474,2595.177,1151.55,2596.172,1152.836,2596.372z"/>
						</g>
						<g>
							<path style="fill:#FFFFFF;" d="M997.875,2476.386c1.331,0.207,2.695-0.468,3.305-1.745c0.746-1.56,0.086-3.43-1.475-4.175
								c-11.311-5.404-278.015-131.956-365.913-97.962c-1.613,0.624-2.415,2.437-1.791,4.05c0.624,1.613,2.437,2.416,4.05,1.792
								c85.41-33.03,358.21,96.459,360.955,97.77C997.289,2476.251,997.581,2476.34,997.875,2476.386z"/>
						</g>
					</g>
				</g>
			</g>
		</g>
		<g>
			<g>
				<defs>
					<path id="SVGID_00000169527132471955899790000007183888868084757632_" d="M432.666,2140.353
						c8.833-21.799,29.151-42.036,48.822-54.516c139.441-88.466,324.04,203.167,338.347,282.876
						c14.307,79.709,40.699,94.184,173.99,68.033c133.291-26.151,115.311,71.615,122.91,119.02
						c7.599,47.404-1.781,95.968,102.837,90.718c104.619-5.25,88.94,34.912,88.94,34.912s-68.819,239.809-87.453,184.964
						c-18.634-54.845-74.935-122.467-215.673-54.004c-60.619,29.488-166.65,50.17-220.986-2.462
						c-12.653-12.256-28.086-33.076-32.776-50.294c-6.506-23.885-1.596-48.12-4.634-72.266
						c-7.08-56.268-70.67-65.975-113.465-83.055c-22.341-8.917-44.901-18.254-65.29-31.163
						c-42.33-26.802-56.487-72.396-52.088-120.52c2.109-23.076,8.054-49.561,2.039-72.484
						c-6.462-24.625-27.113-51.893-40.451-73.618c-10.46-17.038-21.572-33.638-30.084-51.783
						C431.816,2220.958,417.899,2176.795,432.666,2140.353z"/>
				</defs>
				
					<linearGradient id="SVGID_00000067957850867021818730000007752851484726815638_" gradientUnits="userSpaceOnUse" x1="894.039" y1="2042.9076" x2="791.7915" y2="3531.1672">
					<stop  offset="0" style="stop-color:#FFC444"/>
					<stop  offset="0.9964" style="stop-color:#F36F56"/>
				</linearGradient>
				
					<use xlink:href="#SVGID_00000169527132471955899790000007183888868084757632_"  style="overflow:visible;fill:url(#SVGID_00000067957850867021818730000007752851484726815638_);"/>
				<clipPath id="SVGID_00000183956246382221782900000017396274024872124839_">
					<use xlink:href="#SVGID_00000169527132471955899790000007183888868084757632_"  style="overflow:visible;"/>
				</clipPath>
				<g style="opacity:0.8;clip-path:url(#SVGID_00000183956246382221782900000017396274024872124839_);">
					<g>
						<path style="fill:#FFFFFF;" d="M1368.112,2763.012c1.185-0.178,2.086-1.208,2.07-2.44c-0.017-1.345-1.122-2.422-2.467-2.404
							c-0.826,0.01-83.784,0.872-186.069-16.231c-94.248-15.76-224.657-50.427-310.694-126.089
							c-71.858-63.192-168.96-179.355-266.409-318.703c-87.383-124.955-143.003-222.227-146.293-244.08
							c-0.2-1.33-1.441-2.246-2.771-2.046c-1.331,0.2-2.246,1.441-2.046,2.771c3.849,25.562,68.471,133.683,147.118,246.146
							c97.662,139.653,195.047,256.131,267.183,319.569c86.919,76.437,218.292,111.388,313.194,127.25
							c102.7,17.164,186.021,16.293,186.85,16.282C1367.891,2763.038,1368.003,2763.028,1368.112,2763.012z"/>
					</g>
					<g>
						<path style="fill:#FFFFFF;" d="M618.717,2322.792c1.323,0,2.286-1.084,2.095-2.41c-0.252-1.757-24.633-176.294,27.357-246.714
							c0.799-1.082,0.581-2.521-0.501-3.32c-1.083-0.799-2.601-0.527-3.4,0.556c-53.179,72.029-29.323,242.896-28.28,250.149
							c0.191,1.331,1.383,1.739,2.714,1.739C618.707,2322.792,618.712,2322.792,618.717,2322.792z"/>
					</g>
					<g>
						<path style="fill:#FFFFFF;" d="M736.019,2477.272c0.988-0.149,1.822-0.902,2.027-1.939c0.26-1.32-0.599-2.601-1.919-2.861
							c-0.572-0.113-57.97-11.294-121.841-12.205c-86.3-1.23-142.712,15.859-167.67,50.793c-0.782,1.094-0.528,2.616,0.566,3.398
							c1.096,0.781,2.616,0.528,3.398-0.566c57.422-80.372,282.341-37.087,284.606-36.641
							C735.468,2477.309,735.749,2477.313,736.019,2477.272z"/>
					</g>
					<g>
						<path style="fill:#FFFFFF;" d="M1095.16,2728.511c0.259-0.039,0.515-0.121,0.76-0.248c1.194-0.62,1.658-2.091,1.038-3.284
							c-0.325-0.628-32.872-63.611-55.266-136.388c-20.533-66.727-36.528-155.555,3.872-199.801
							c0.907-0.994,0.837-2.534-0.156-3.441c-0.993-0.908-2.535-0.838-3.441,0.156c-33.688,36.894-35.34,105.725-4.911,204.581
							c22.528,73.188,55.252,136.508,55.581,137.14C1093.128,2728.173,1094.158,2728.662,1095.16,2728.511z"/>
					</g>
					<g>
						<path style="fill:#FFFFFF;" d="M952.216,2675.496c1.036-0.156,1.892-0.974,2.047-2.064c0.191-1.332-0.734-2.566-2.066-2.756
							c-9.653-1.38-237.072-33.271-294.412,12.413c-1.052,0.839-1.226,2.371-0.388,3.423c0.838,1.052,2.371,1.227,3.423,0.387
							c55.716-44.389,288.343-11.735,290.686-11.401C951.749,2675.533,951.987,2675.531,952.216,2675.496z"/>
					</g>
				</g>
			</g>
		</g>
		<g>
			<g>
				<g>
					
						<linearGradient id="SVGID_00000044885139606197453190000003180380468265579929_" gradientUnits="userSpaceOnUse" x1="-1000.3035" y1="2655.0146" x2="-1020.0418" y2="3024.4023" gradientTransform="matrix(-1 0 0 1 2027.6925 0)">
						<stop  offset="0" style="stop-color:#311944"/>
						<stop  offset="1" style="stop-color:#A03976"/>
					</linearGradient>
					<path style="fill:url(#SVGID_00000044885139606197453190000003180380468265579929_);" d="M2999.81,2664.468h61.843h12.214
						v83.456l-10.175,153.923c-1.147,17.36-15.563,30.854-32.961,30.854c-17.398,0-31.813-13.494-32.961-30.854l-10.175-153.923
						v-83.456H2999.81z"/>
					
						<linearGradient id="SVGID_00000080179648565138608830000003819000508332730784_" gradientUnits="userSpaceOnUse" x1="-452.4961" y1="2684.2871" x2="-472.2343" y2="3053.6746" gradientTransform="matrix(-1 0 0 1 2027.6925 0)">
						<stop  offset="0" style="stop-color:#311944"/>
						<stop  offset="1" style="stop-color:#A03976"/>
					</linearGradient>
					<path style="fill:url(#SVGID_00000080179648565138608830000003819000508332730784_);" d="M2450.438,2664.468h61.843h12.214
						v83.456l-10.175,153.923c-1.147,17.36-15.563,30.854-32.961,30.854c-17.397,0-31.813-13.494-32.961-30.854l-10.175-153.923
						v-83.456H2450.438z"/>
					
						<linearGradient id="SVGID_00000181774714773325841360000009883835065206737060_" gradientUnits="userSpaceOnUse" x1="-860.0988" y1="2662.5066" x2="-879.8372" y2="3031.8943" gradientTransform="matrix(-1 0 0 1 2027.6925 0)">
						<stop  offset="0" style="stop-color:#311944"/>
						<stop  offset="1" style="stop-color:#A03976"/>
					</linearGradient>
					<path style="fill:url(#SVGID_00000181774714773325841360000009883835065206737060_);" d="M2866.371,2798.584h61.843h12.214
						v83.456l-10.175,153.923c-1.147,17.36-15.563,30.854-32.961,30.854c-17.398,0-31.813-13.494-32.961-30.854l-10.175-153.923
						v-83.456H2866.371z"/>
					
						<linearGradient id="SVGID_00000044897016802345179060000000424187716588234679_" gradientUnits="userSpaceOnUse" x1="-29.2315" y1="2706.9043" x2="-48.9698" y2="3076.2917" gradientTransform="matrix(-1 0 0 1 2027.6925 0)">
						<stop  offset="0" style="stop-color:#311944"/>
						<stop  offset="1" style="stop-color:#A03976"/>
					</linearGradient>
					<path style="fill:url(#SVGID_00000044897016802345179060000000424187716588234679_);" d="M2029.967,2739.371h61.843h12.214
						v83.456l-10.175,153.922c-1.147,17.36-15.563,30.854-32.961,30.854c-17.398,0-31.813-13.494-32.961-30.854l-10.175-153.922
						v-83.456H2029.967z"/>
					
						<linearGradient id="SVGID_00000161599136378183627490000002150032639378170782_" gradientUnits="userSpaceOnUse" x1="-1007.5215" y1="2969.6775" x2="-1001.8821" y2="2741.2788" gradientTransform="matrix(-1 0 0 1 2027.6925 0)">
						<stop  offset="0" style="stop-color:#311944"/>
						<stop  offset="1" style="stop-color:#A03976"/>
					</linearGradient>
					<polygon style="fill:url(#SVGID_00000161599136378183627490000002150032639378170782_);" points="3104.325,2669.331 
						3094.635,2743.494 2980.178,2841.6 2952.912,2735.762 					"/>
					
						<linearGradient id="SVGID_00000166668287204667584240000001299115683493272728_" gradientUnits="userSpaceOnUse" x1="-444.7298" y1="2613.123" x2="-489.8455" y2="3036.0845" gradientTransform="matrix(-1 0 0 1 2027.6925 0)">
						<stop  offset="0" style="stop-color:#311944"/>
						<stop  offset="1" style="stop-color:#A03976"/>
					</linearGradient>
					<path style="fill:url(#SVGID_00000166668287204667584240000001299115683493272728_);" d="M2984.854,2696.397l-4.676,145.203
						c0,0-990.859-25.315-990.296-31.528c0.563-6.214-7.115-93.829-7.115-93.829L2984.854,2696.397z"/>
					
						<linearGradient id="SVGID_00000008122412791407126230000000820575744278000814_" gradientUnits="userSpaceOnUse" x1="-1067.7769" y1="2172.3855" x2="93.9581" y2="2420.5239" gradientTransform="matrix(-1 0 0 1 2027.6925 0)">
						<stop  offset="0.0036" style="stop-color:#E38DDD"/>
						<stop  offset="1" style="stop-color:#9571F6"/>
					</linearGradient>
					<path style="fill:url(#SVGID_00000008122412791407126230000000820575744278000814_);" d="M1967.299,2487.467
						c0.427-39.788,28.248-74.02,67.109-82.571l365.833-80.497c0,0,1.38-329.094-38.437-515.536
						c-11.662-54.608,36.038-103.93,90.866-93.351c29.976,5.784,64.019,19.468,99.837,46.926c0,0,295.999-78.074,496.708-0.003
						c0,0,23.209-67.486,122.935-58.679c51.829,4.577,86.043,56.093,70.812,105.844
						c-49.774,162.571-151.769,538.979-122.341,809.546c4.811,44.225-14.281,87.679-49.6,114.725l-62.973,48.223
						c-18.008,13.79-40.313,20.767-62.969,19.697l-910.039-42.989c-39.408-1.862-70.277-34.573-69.855-74.023L1967.299,2487.467z"/>
					
						<linearGradient id="SVGID_00000047055636213364233270000012143298943859583128_" gradientUnits="userSpaceOnUse" x1="-1030.2245" y1="1754.5531" x2="-1021.5229" y2="1754.5531" gradientTransform="matrix(-1 0 0 1 2027.6925 0)">
						<stop  offset="0.0036" style="stop-color:#E38DDD"/>
						<stop  offset="1" style="stop-color:#9571F6"/>
					</linearGradient>
					<path style="fill:url(#SVGID_00000047055636213364233270000012143298943859583128_);" d="M3057.917,1746.672l-8.702,15.762
						C3049.215,1762.434,3051.56,1755.65,3057.917,1746.672z"/>
					
						<linearGradient id="SVGID_00000183949088978252320420000007854793170211329454_" gradientUnits="userSpaceOnUse" x1="-1021.5229" y1="2103.4004" x2="52.1215" y2="2103.4004" gradientTransform="matrix(-1 0 0 1 2027.6925 0)">
						<stop  offset="0.0036" style="stop-color:#E38DDD"/>
						<stop  offset="1" style="stop-color:#9571F6"/>
					</linearGradient>
					<path style="opacity:0.6;fill:url(#SVGID_00000183949088978252320420000007854793170211329454_);" d="M1975.571,2451.703
						c11.065-23.266,32.388-40.988,58.837-46.807l365.833-80.497c0,0,0.229-54.519-2.185-131.743
						c30.662-0.953,82.516-26.949,85.754-190.486c2.688-135.73-11.561-230.014-23.935-285.113
						c28.182,6.512,59.65,20.098,92.632,45.381c0,0,295.999-78.074,496.708-0.003l-74.646,727.311
						C2974.569,2489.744,2510.154,2365.728,1975.571,2451.703z"/>
					
						<linearGradient id="SVGID_00000044137410507013085590000017574866344692804225_" gradientUnits="userSpaceOnUse" x1="-1095.376" y1="2301.5964" x2="66.3601" y2="2549.7351" gradientTransform="matrix(-1 0 0 1 2027.6925 0)">
						<stop  offset="0.0036" style="stop-color:#E38DDD"/>
						<stop  offset="1" style="stop-color:#9571F6"/>
					</linearGradient>
					<path style="fill:url(#SVGID_00000044137410507013085590000017574866344692804225_);" d="M3075.263,2469.844l27.726-277.778
						c0,0-22.543-33.371-103.229-32.681c-80.686,0.69-96.434,43.992-97.604,330.381l85.425,12.507L3075.263,2469.844z"/>
					
						<linearGradient id="SVGID_00000104669856582351533190000013127669555668735633_" gradientUnits="userSpaceOnUse" x1="-1218.9067" y1="2256.0898" x2="-997.8635" y2="2256.0898" gradientTransform="matrix(-1 0 0 1 2027.6925 0)">
						<stop  offset="0.0036" style="stop-color:#E38DDD"/>
						<stop  offset="1" style="stop-color:#9571F6"/>
					</linearGradient>
					<path style="opacity:0.6;fill:url(#SVGID_00000104669856582351533190000013127669555668735633_);" d="M3102.989,2192.066
						c0,0,52.746-322.672,81.398-409.837c12.476-37.955,32.928-42.85,52.046-36.287c10.215,18.641,13.368,41.32,6.529,63.657
						c-49.774,162.571-151.769,538.979-122.341,809.546c4.811,44.225-14.281,87.679-49.6,114.725l-45.464,34.816
						c4.23-178.042,14.486-543.394,28.01-573.944C3071.508,2154.215,3102.989,2192.066,3102.989,2192.066z"/>
					
						<linearGradient id="SVGID_00000079485348184769795840000002003637950672768702_" gradientUnits="userSpaceOnUse" x1="-110.9018" y1="2078.0554" x2="-359.0393" y2="2647.645" gradientTransform="matrix(-1 0 0 1 2027.6925 0)">
						<stop  offset="0.0036" style="stop-color:#E38DDD"/>
						<stop  offset="1" style="stop-color:#9571F6"/>
					</linearGradient>
					<path style="fill:url(#SVGID_00000079485348184769795840000002003637950672768702_);" d="M2462.396,2351.07l-4.235-105.351
						c0,0-5.319-20.492-70.253-38.175c-51.143-13.927-199.224-43.331-259.819-55.193c-16.77-3.283-33.892-4.312-50.928-2.984
						c-4.152,0.323-8.338,0.625-12.118,0.855c-20.082,1.219-35.609,18.097-35.186,38.212l4.551,216.461l82.83,15.212
						L2462.396,2351.07z"/>
					
						<linearGradient id="SVGID_00000181075965028421766670000011583392941203189403_" gradientUnits="userSpaceOnUse" x1="-149.213" y1="2198.3931" x2="-295.8393" y2="2466.2678" gradientTransform="matrix(-1 0 0 1 2027.6925 0)">
						<stop  offset="0.0036" style="stop-color:#E38DDD"/>
						<stop  offset="1" style="stop-color:#9571F6"/>
					</linearGradient>
					<path style="opacity:0.6;fill:url(#SVGID_00000181075965028421766670000011583392941203189403_);" d="M2114.507,2366.857
						c32.588-39.391-7.321-113.823,29.197-139.403c19.156-13.418,41.449-0.863,106.151,15.334
						c49.193,12.315,164.439,41.166,178.584,16.918c3.276-5.616,3.057-17.495-21.137-46.222
						c46.614,16.026,50.86,32.236,50.86,32.236l4.235,105.35l-345.159,69.038l-82.83-15.212l-0.318-15.163
						C2078.493,2392.445,2102.046,2381.917,2114.507,2366.857z"/>
				</g>
			</g>
		</g>
		<g>
			
				<linearGradient id="SVGID_00000034784557943969615610000001302582527333507739_" gradientUnits="userSpaceOnUse" x1="1255.7078" y1="2219.416" x2="1290.6543" y2="3267.7854">
				<stop  offset="0" style="stop-color:#AA80F9"/>
				<stop  offset="0.9964" style="stop-color:#6165D7"/>
			</linearGradient>
			<path style="fill:url(#SVGID_00000034784557943969615610000001302582527333507739_);" d="M1632.021,2713.159h-7.043
				c-76.819,0-139.098-59.629-139.098-136.451c0-51.539-41.783-90.671-93.319-90.671h-235.939c-51.536,0-93.319,40.55-93.319,92.089
				c0,76.822-62.279,138.483-139.098,138.483c-98.216,0-177.835,78.741-177.835,176.957c0,22.366,18.13,39.619,40.497,39.619
				h982.493c22.367,0,40.497-18.977,40.497-41.344C1809.856,2793.625,1730.237,2713.159,1632.021,2713.159z"/>
			
				<linearGradient id="SVGID_00000158711516174627390960000006426574270219907001_" gradientUnits="userSpaceOnUse" x1="1284.8372" y1="2132.9519" x2="1270.7506" y2="2593.1143">
				<stop  offset="0" style="stop-color:#AA80F9"/>
				<stop  offset="0.9964" style="stop-color:#6165D7"/>
			</linearGradient>
			<path style="fill:url(#SVGID_00000158711516174627390960000006426574270219907001_);" d="M1404.885,2543.441
				c0,71.979-60.646,130.295-132.623,130.295c-71.977,0-132.623-58.316-132.623-130.295v-1.409
				c7.098-42.398,23.457-79.867,55.15-103.32c20.145-15.002,45.884-24.228,72.653-25.425c1.967-0.071,4.523-0.141,6.566-0.141
				c29.018,0,56.14,9.508,77.764,25.566C1383.816,2462.376,1404.885,2500.479,1404.885,2543.441z"/>
			
				<linearGradient id="SVGID_00000021106634887827380840000012359078819165073031_" gradientUnits="userSpaceOnUse" x1="1287.913" y1="1868.4694" x2="1273.8923" y2="2326.4758">
				<stop  offset="0" style="stop-color:#AA80F9"/>
				<stop  offset="0.9964" style="stop-color:#6165D7"/>
			</linearGradient>
			<path style="fill:url(#SVGID_00000021106634887827380840000012359078819165073031_);" d="M1352.567,2166.646V2447h-68.822
				c-3.659,0-7.18,0-10.564,0h-76.76v-280.354H1352.567z"/>
			
				<linearGradient id="SVGID_00000162351509313700046530000002791930255296579991_" gradientUnits="userSpaceOnUse" x1="1143.9473" y1="2410.5046" x2="1289.8003" y2="2410.5046">
				<stop  offset="0" style="stop-color:#AA80F9"/>
				<stop  offset="0.9964" style="stop-color:#6165D7"/>
			</linearGradient>
			<path style="opacity:0.5;fill:url(#SVGID_00000162351509313700046530000002791930255296579991_);" d="M1283.745,2344.477
				c-10.282,16.199-16.06,45.427-15.138,68.81c0.633,18.171,5.351,32.75,15.138,35.074c-3.659-0.141-7.18-0.141-10.564,0
				c-73.882,2.817-94.653,63.668-71.626,95.08c-29.155-4.86-48.59-3.029-57.607-1.409c0.495-42.398,20.534-79.867,52.473-103.32
				v-161.143l76.975,10.001C1273.396,2287.57,1301.917,2315.742,1283.745,2344.477z"/>
			
				<linearGradient id="SVGID_00000049186765091001013450000007362232755881388962_" gradientUnits="userSpaceOnUse" x1="1289.3628" y1="2210.7576" x2="1324.8395" y2="3275.0315">
				<stop  offset="0" style="stop-color:#AA80F9"/>
				<stop  offset="0.9964" style="stop-color:#6165D7"/>
			</linearGradient>
			<path style="fill:url(#SVGID_00000049186765091001013450000007362232755881388962_);" d="M1845.069,2930.877
				c0,1.065-0.036,2.129-0.142,3.194c-1.598,20.938-19.057,38.15-40.35,38.15H822.095c-22.393,0-40.527-19.589-40.527-41.947
				c0-98.195,79.635-179.285,177.864-179.285c76.796,0,139.079-62.938,139.079-139.769c0-30.591,14.727-57.757,37.474-75.5
				c0.036,0,0.036,0,0.036,0c15.58-10.646,34.885-17.744,55.822-17.744h235.923c51.528,0,93.334,42.692,93.334,94.22
				c0,76.831,62.281,140,139.077,140h7.061C1765.469,2752.196,1845.069,2832.646,1845.069,2930.877z"/>
			
				<linearGradient id="SVGID_00000035490699879641270680000006566757428201965696_" gradientUnits="userSpaceOnUse" x1="781.2126" y1="1547.3824" x2="1767.7754" y2="1547.3824">
				<stop  offset="0" style="stop-color:#AA80F9"/>
				<stop  offset="0.9964" style="stop-color:#6165D7"/>
			</linearGradient>
			<path style="fill:url(#SVGID_00000035490699879641270680000006566757428201965696_);" d="M1767.775,1280.849v532.025
				c0,237.559-170.035,435.986-394.99,479.23c-30.001,5.846-61.082,9.395-92.775,9.395h-10.84
				c-269.256,0-487.958-219.373-487.958-488.625v-532.025c0-255.941,197.388-465.821,448.191-485.964
				c13.027-1.056,26.452-1.62,39.768-1.62h10.84C1549.266,793.265,1767.775,1011.597,1767.775,1280.849z"/>
			<path style="fill:#D8DEE8;" d="M1714.544,1817.943c0,163.184-132.288,295.471-295.474,295.471h-65.577
				c-163.186,0-295.474-132.287-295.474-295.471v-509.183c0-163.184,132.288-295.471,295.474-295.471h65.577
				c163.186,0,295.474,132.287,295.474,295.471V1817.943z"/>
			
				<linearGradient id="SVGID_00000042725303136141250780000005691837762476669870_" gradientUnits="userSpaceOnUse" x1="1086.4083" y1="1563.3521" x2="1682.6045" y2="1563.3521">
				<stop  offset="0" style="stop-color:#444B8C"/>
				<stop  offset="0.9964" style="stop-color:#26264F"/>
			</linearGradient>
			<path style="fill:url(#SVGID_00000042725303136141250780000005691837762476669870_);" d="M1682.604,1308.98
				c0-147.625-119.675-267.299-267.302-267.299h-61.591c-147.627,0-267.302,119.674-267.302,267.299v508.744
				c0,147.625,119.675,267.299,267.302,267.299h61.591c147.627,0,267.302-119.674,267.302-267.299V1308.98z"/>
			
				<linearGradient id="SVGID_00000065048785112299449980000003384341706493925806_" gradientUnits="userSpaceOnUse" x1="1248.7666" y1="1402.1877" x2="1602.6753" y2="1402.1877">
				<stop  offset="0" style="stop-color:#AA80F9"/>
				<stop  offset="0.9964" style="stop-color:#6165D7"/>
			</linearGradient>
			
				<circle style="opacity:0.6;fill:url(#SVGID_00000065048785112299449980000003384341706493925806_);" cx="1425.721" cy="1402.188" r="176.954"/>
			
				<linearGradient id="SVGID_00000142144387355739223460000011468543221110694285_" gradientUnits="userSpaceOnUse" x1="1296.3066" y1="1404.8289" x2="1574.5035" y2="1404.8289">
				<stop  offset="0" style="stop-color:#444B8C"/>
				<stop  offset="0.9964" style="stop-color:#26264F"/>
			</linearGradient>
			
				<circle style="fill:url(#SVGID_00000142144387355739223460000011468543221110694285_);" cx="1435.405" cy="1404.829" r="139.098"/>
			
				<linearGradient id="SVGID_00000165948089905651053150000012495657411002341804_" gradientUnits="userSpaceOnUse" x1="1259.918" y1="1795.865" x2="1575.981" y2="1795.865">
				<stop  offset="0" style="stop-color:#AA80F9"/>
				<stop  offset="0.9964" style="stop-color:#6165D7"/>
			</linearGradient>
			
				<circle style="opacity:0.6;fill:url(#SVGID_00000165948089905651053150000012495657411002341804_);" cx="1417.949" cy="1795.865" r="158.031"/>
			
				<linearGradient id="SVGID_00000057859956639700429250000009766637866402148497_" gradientUnits="userSpaceOnUse" x1="1302.3741" y1="1798.2236" x2="1550.8217" y2="1798.2236">
				<stop  offset="0" style="stop-color:#444B8C"/>
				<stop  offset="0.9964" style="stop-color:#26264F"/>
			</linearGradient>
			
				<circle style="fill:url(#SVGID_00000057859956639700429250000009766637866402148497_);" cx="1426.598" cy="1798.224" r="124.224"/>
			
				<linearGradient id="SVGID_00000018931541123006132620000003887813894439592620_" gradientUnits="userSpaceOnUse" x1="1369.6708" y1="1405.1223" x2="1515.8123" y2="1405.1223">
				<stop  offset="0" style="stop-color:#444B8C"/>
				<stop  offset="0.9964" style="stop-color:#26264F"/>
			</linearGradient>
			
				<circle style="opacity:0.3;fill:url(#SVGID_00000018931541123006132620000003887813894439592620_);" cx="1442.741" cy="1405.122" r="73.071"/>
			
				<linearGradient id="SVGID_00000132048138893506824550000014156776910606993836_" gradientUnits="userSpaceOnUse" x1="1369.6708" y1="1799.5281" x2="1515.8123" y2="1799.5281">
				<stop  offset="0" style="stop-color:#444B8C"/>
				<stop  offset="0.9964" style="stop-color:#26264F"/>
			</linearGradient>
			
				<circle style="opacity:0.3;fill:url(#SVGID_00000132048138893506824550000014156776910606993836_);" cx="1442.741" cy="1799.528" r="73.071"/>
			
				<linearGradient id="SVGID_00000034810176949642315840000017024861775949996436_" gradientUnits="userSpaceOnUse" x1="766.2459" y1="2231.2444" x2="801.4617" y2="3287.6926">
				<stop  offset="0" style="stop-color:#AA80F9"/>
				<stop  offset="0.9964" style="stop-color:#6165D7"/>
			</linearGradient>
			<path style="fill:url(#SVGID_00000034810176949642315840000017024861775949996436_);" d="M747.433,2874.379
				c0,0-13.389,64.347,23.587,82.835c36.976,18.488,63.387,12.325,63.387,12.325L747.433,2874.379z"/>
			<path style="opacity:0.4;fill:#FFFFFF;" d="M1767.775,1280.849v532.025c0,237.559-170.035,435.466-394.99,478.71
				c56.419-17.185,102.787-94.375,109.548-188.822c0.701-9.578,0.961-19.298,0.748-29.228c-0.633-40.357-8.602-82.896-25.996-124.59
				c-3.872-9.297-8.245-18.523-13.039-27.679c-10.702-20.283-23.731-40.215-39.441-59.443c-0.069-0.07-0.07-0.07-0.139-0.141
				c-11.906-14.579-22.684-29.017-32.402-43.525c-20.214-30.285-35.71-60.499-46.976-91.488
				c-5.633-15.565-10.214-31.271-13.804-47.329c-10.496-46.624-12.463-95.502-7.463-148.959c1.829-19.791,4.574-40.215,8.164-61.344
				c9.299-53.879,24.162-112.547,43.317-177.835c5.495-18.734,11.266-38.032,17.47-57.893c3.521-11.48,7.181-23.171,10.984-35.074
				c19.086-60.217,23.804-112.828,18.949-158.466c-0.99-9.719-2.469-19.087-4.299-28.172
				c-24.65-122.125-118.465-188.963-168.818-216.712c13.027-1.056,26.267-1.62,39.582-1.62h10.84
				C1549.266,793.265,1767.775,1011.597,1767.775,1280.849z"/>
			
				<linearGradient id="SVGID_00000111897939250523936220000017528326809036240784_" gradientUnits="userSpaceOnUse" x1="1290.0585" y1="2236.8679" x2="1324.3445" y2="3265.4224">
				<stop  offset="0" style="stop-color:#AA80F9"/>
				<stop  offset="0.9964" style="stop-color:#6165D7"/>
			</linearGradient>
			<path style="opacity:0.3;fill:url(#SVGID_00000111897939250523936220000017528326809036240784_);" d="M1844.927,2934.071
				c-1.598,20.938-19.057,38.15-40.35,38.15H822.095c-22.393,0-40.527-19.589-40.527-41.947
				c0-98.195,79.635-179.285,177.864-179.285c76.796,0,139.079-62.938,139.079-139.769c0-30.591,14.727-57.757,37.474-75.5
				c0.036,0,0.036,0,0.036,0c3.123,3.549,5.749,3.744,7.914,5.838c0,0-19.589,145.349,85.668,167.813
				c105.221,22.464,204.587,15.486,240.075,124.327C1498.813,2923.092,1727.462,2870.548,1844.927,2934.071z"/>
		</g>
		<g>
			
				<linearGradient id="SVGID_00000129200167772361888360000002017447450666821542_" gradientUnits="userSpaceOnUse" x1="3708.8325" y1="2097.2949" x2="3698.6748" y2="2297.9067" gradientTransform="matrix(-1 0 0 1 6265.4048 0)">
				<stop  offset="0" style="stop-color:#FF9085"/>
				<stop  offset="1" style="stop-color:#FB6FBB"/>
			</linearGradient>
			<polygon style="fill:url(#SVGID_00000129200167772361888360000002017447450666821542_);" points="2567.276,2251.279 
				2093.4,2132.747 2069.698,2247.875 2503.52,2448.1 2847.021,2363.248 3054.235,2159.794 			"/>
			
				<linearGradient id="SVGID_00000042719924823542070380000011109340145733863083_" gradientUnits="userSpaceOnUse" x1="3708.8325" y1="2097.2949" x2="3698.6748" y2="2297.9067" gradientTransform="matrix(-1 0 0 1 6265.4048 0)">
				<stop  offset="0" style="stop-color:#311944"/>
				<stop  offset="1" style="stop-color:#A03976"/>
			</linearGradient>
			<polygon style="fill:url(#SVGID_00000042719924823542070380000011109340145733863083_);" points="2567.276,2251.279 
				2093.4,2132.747 2069.698,2247.875 2503.52,2448.1 2847.021,2363.248 3054.235,2159.794 			"/>
			
				<linearGradient id="SVGID_00000146477549661447635540000018026394524671835839_" gradientUnits="userSpaceOnUse" x1="3683.2314" y1="2277.2607" x2="4276.9468" y2="2277.2607" gradientTransform="matrix(-1 0 0 1 6265.4048 0)">
				<stop  offset="0" style="stop-color:#311944"/>
				<stop  offset="1" style="stop-color:#A03976"/>
			</linearGradient>
			<path style="fill:url(#SVGID_00000146477549661447635540000018026394524671835839_);" d="M2582.173,2410.636
				c-94.185-50.494-163.743-101.922-210.96-140.796c-92.899-76.487-135.515-134.186-229.565-156.985
				c-16.81-4.074-112.573-27.289-143.476,15.236c-34.214,47.083,32.305,145.542,40.385,157.501
				c120.158,177.852,426.142,169.553,522.12,163.785C2567.842,2436.463,2575.007,2423.549,2582.173,2410.636z"/>
			
				<linearGradient id="SVGID_00000173862087783724115000000011160523090271208882_" gradientUnits="userSpaceOnUse" x1="3683.231" y1="2278.6426" x2="4276.9458" y2="2278.6426" gradientTransform="matrix(-1 0 0 1 6265.4048 0)">
				<stop  offset="0" style="stop-color:#311944"/>
				<stop  offset="1" style="stop-color:#A03976"/>
			</linearGradient>
			<path style="opacity:0.3;fill:url(#SVGID_00000173862087783724115000000011160523090271208882_);" d="M1998.172,2128.091
				c9.031-12.427,23.662-19.134,40.182-22.451c-5.497,19.034-5.998,36.896,0.871,52.501c18.776,42.652,74.375,29.515,113.427,79.568
				c38.354,49.158,11.804,96.537,45.709,116.813c38.861,23.239,87.036-31.053,128.663-5.079
				c28.302,17.658,19.497,51.161,52.48,69.41c22.793,12.612,45.137,6.647,71.103,3.386c29.762-3.74,70.535-4.539,121.716,6.152
				c-3.881,6.995-7.763,13.991-11.646,20.988c-95.976,5.768-401.961,14.066-522.119-163.785
				C2030.477,2273.632,1963.957,2175.175,1998.172,2128.091z"/>
			
				<linearGradient id="SVGID_00000080197362833172219230000007338612565425051796_" gradientUnits="userSpaceOnUse" x1="3851.3577" y1="2508.2803" x2="3737.0854" y2="2366.0752" gradientTransform="matrix(-1 0 0 1 6265.4048 0)">
				<stop  offset="0" style="stop-color:#311944"/>
				<stop  offset="1" style="stop-color:#6B3976"/>
			</linearGradient>
			<path style="fill:url(#SVGID_00000080197362833172219230000007338612565425051796_);" d="M2510.967,2437.213
				c0,0-17.258-12.375-42.301-3.942c-25.042,8.433-64.808,15.238-64.747,27.483c0.061,12.245,39.847,19.908,67.341,14.876
				C2497.56,2470.815,2518.244,2447.958,2510.967,2437.213z"/>
			
				<linearGradient id="SVGID_00000060013708523113127610000014059610446017695137_" gradientUnits="userSpaceOnUse" x1="3781.2007" y1="2474.511" x2="3623.7566" y2="2276.4363" gradientTransform="matrix(-1 0 0 1 6265.4048 0)">
				<stop  offset="0" style="stop-color:#FFC444"/>
				<stop  offset="0.9964" style="stop-color:#F36F56"/>
			</linearGradient>
			<path style="fill:url(#SVGID_00000060013708523113127610000014059610446017695137_);" d="M2536.258,2416.312l-46.089,14.826
				c0,0-7.487,12.47,2.617,20.38c10.104,7.909,45.214-8.818,45.214-8.818L2536.258,2416.312z"/>
			
				<linearGradient id="SVGID_00000065775019203419141840000003762091379624577440_" gradientUnits="userSpaceOnUse" x1="3442.2434" y1="2270.6169" x2="3311.4241" y2="2542.7212" gradientTransform="matrix(-1 0 0 1 6265.4048 0)">
				<stop  offset="0" style="stop-color:#311944"/>
				<stop  offset="1" style="stop-color:#A03976"/>
			</linearGradient>
			<path style="fill:url(#SVGID_00000065775019203419141840000003762091379624577440_);" d="M3176.872,2203.851
				c13.608,79.233-157.391,164.945-196.538,184.566c-79.782,39.989-229.899,96.441-452.699,74.875
				c-2.963-17.776-5.926-35.552-8.888-53.327c29.433-10.083,73.05-26.472,123.662-51.368c86.376-42.49,119.174-72.834,239.034-145.3
				c132.631-80.186,171.266-90.473,210.783-80.549C3126.016,2141.233,3170.549,2167.033,3176.872,2203.851z"/>
			
				<linearGradient id="SVGID_00000094584556817434210620000013334629387516005760_" gradientUnits="userSpaceOnUse" x1="3388.5813" y1="2603.6604" x2="3671.9937" y2="1994.3237" gradientTransform="matrix(-1 0 0 1 6265.4048 0)">
				<stop  offset="0.0036" style="stop-color:#F36F56"/>
				<stop  offset="1" style="stop-color:#FFC444"/>
			</linearGradient>
			<path style="fill:url(#SVGID_00000094584556817434210620000013334629387516005760_);" d="M2998.693,2053.18
				c28.905-104.542-18.809-245.601-119.351-313.615c-82.067-55.513-178.224-51.912-208.23-50.787
				c-32.845,1.231-29.453,5.495-132.845,24.623c-143.539,26.559-156.791,20.12-198.545,40.131
				c-78.513,37.628-116.611,105.995-123.74,119.297c-36.486,68.079-66.18,194.64,3.119,256.532
				c39.394,35.186,94.621,35.041,125.7,31.743c2.115-13.967,4.231-27.934,6.348-41.9c-6.325-4.899-43.639-34.808-48.248-87.609
				c-5.3-60.681,37.116-99.848,41.9-104.115c15.044,29.041,33.561,73.141,41.899,129.509c10.767,72.794-0.382,132.651-9.823,167.85
				c37.96,20.836,100.734,49.109,182.502,58.156c61.605,6.815,137.881,15.255,186.645-22.854
				c68.811-53.775,74.628-193.818,6.667-339.578c24.875,16.663,60.913,46.807,75.862,94.526c2.26,7.215,6.088,21.375,7.619,76.182
				C2838.92,2189.742,2968.737,2161.513,2998.693,2053.18z"/>
			
				<linearGradient id="SVGID_00000047060232908032232100000013902311150917711765_" gradientUnits="userSpaceOnUse" x1="3635.344" y1="1788.7056" x2="3656.9287" y2="2137.8718" gradientTransform="matrix(-1 0 0 1 6265.4048 0)">
				<stop  offset="0.0036" style="stop-color:#F36F56"/>
				<stop  offset="1" style="stop-color:#FFC444"/>
			</linearGradient>
			<path style="opacity:0.3;fill:url(#SVGID_00000047060232908032232100000013902311150917711765_);" d="M2532.714,2125.552
				c34.627,4.245,44.05,40.195,76.182,38.09c69.913-4.578,126.026-125.612,96.497-191.724
				c-19.255-43.105-69.45-50.622-66.024-78.721c2.74-22.484,37.577-39.785,66.024-40.63c44.291-1.314,73.537,37.255,83.8,50.788
				c23.984,31.63,29.155,66.358,29.697,88.695c-17.6-34.527-45.631-57.711-66.199-71.489
				c67.96,145.761,62.143,285.803-6.667,339.578c-48.765,38.107-125.041,29.67-186.645,22.854
				c-66.365-7.342-120.214-27.349-158.444-45.766C2438.081,2176.76,2485.393,2119.749,2532.714,2125.552z"/>
			
				<linearGradient id="SVGID_00000023242162009238504610000016506081571016450993_" gradientUnits="userSpaceOnUse" x1="3448.1873" y1="2244.1169" x2="3854.3979" y2="2244.1169" gradientTransform="matrix(-1 0 0 1 6265.4048 0)">
				<stop  offset="0" style="stop-color:#AA80F9"/>
				<stop  offset="0.9964" style="stop-color:#6165D7"/>
			</linearGradient>
			<polygon style="fill:url(#SVGID_00000023242162009238504610000016506081571016450993_);" points="2412.044,2224.166 
				2817.217,2218.117 2709.474,2270.117 2411.007,2250.581 			"/>
			
				<linearGradient id="SVGID_00000129205986529570439810000012910178516328671381_" gradientUnits="userSpaceOnUse" x1="3433.8894" y1="2257.1313" x2="3575.8167" y2="2257.1313" gradientTransform="matrix(-1 0 0 1 6265.4048 0)">
				<stop  offset="0" style="stop-color:#444B8C"/>
				<stop  offset="0.9964" style="stop-color:#26264F"/>
			</linearGradient>
			<path style="fill:url(#SVGID_00000129205986529570439810000012910178516328671381_);" d="M2831.515,2228.885v0.002
				c0,7.583-4.743,14.356-11.87,16.947l-129.466,50.754l-0.591-35.187l127.629-43.283
				C2824.377,2216.059,2831.515,2221.434,2831.515,2228.885z"/>
			
				<linearGradient id="SVGID_00000109724685532534843120000010638357975692400772_" gradientUnits="userSpaceOnUse" x1="3231.4092" y1="2530.5581" x2="3514.8213" y2="1921.2222" gradientTransform="matrix(-1 0 0 1 6265.4048 0)">
				<stop  offset="0.0036" style="stop-color:#F36F56"/>
				<stop  offset="1" style="stop-color:#FFC444"/>
			</linearGradient>
			<path style="fill:url(#SVGID_00000109724685532534843120000010638357975692400772_);" d="M2979.102,1983.52
				c-31.266-29.594-107.968-10.955-136.582,31.568c-21.064,31.302-3.631,57.059-19.045,96.497
				c-18.884,48.313-90.113,91.994-133.887,106.532c6.852,14.752,4.836,18.573,11.688,33.324
				c27.847-3.478,229.132-34.311,278.372-153.823C2982.212,2091.391,3012.63,2015.255,2979.102,1983.52z"/>
			
				<linearGradient id="SVGID_00000080888387453443401290000017461724222799354002_" gradientUnits="userSpaceOnUse" x1="3625.8801" y1="1843.7596" x2="3757.8438" y2="1646.2568" gradientTransform="matrix(-1 0 0 1 6265.4048 0)">
				<stop  offset="0.0036" style="stop-color:#F36F56"/>
				<stop  offset="1" style="stop-color:#FFC444"/>
			</linearGradient>
			<path style="fill:url(#SVGID_00000080888387453443401290000017461724222799354002_);" d="M2522.208,1671.514
				c0,0,32.767,35.433,59.965,39.121c27.198,3.688,66.506-3.537,73.278,0c6.772,3.536-34.159,18.098-66.622,27.002
				c-32.464,8.905-91.406,26.694-107.701,22.798c-16.296-3.897,17.808-24.79,31.313-30.329c13.506-5.54-5.825-33.994-5.825-33.994
				L2522.208,1671.514z"/>
			<g>
				
					<linearGradient id="SVGID_00000065758641882395150430000018271684726154699967_" gradientUnits="userSpaceOnUse" x1="1870.3622" y1="867.1316" x2="1811.1044" y2="716.6276" gradientTransform="matrix(0.9727 0.232 -0.232 0.9727 932.1477 496.2879)">
					<stop  offset="0" style="stop-color:#311944"/>
					<stop  offset="1" style="stop-color:#6B3976"/>
				</linearGradient>
				<path style="fill:url(#SVGID_00000065758641882395150430000018271684726154699967_);" d="M2490.403,1647.445
					c-4.955-11.247-1.485-28.041,9.282-36.646c9.264-7.403,20.798-6.063,27.703-5.263c20.01,2.318,42.683,16.217,47.027,36.154
					c2.573,11.814-13.564,31.322-16.211,34.887c-2.996,4.033-6.88,4.747-10.935,7.375c-5.622,3.647-14.449,9.471-28.926,19.278
					c-0.032-3.904-0.323-8.794-1.326-14.259c-0.387-2.101-1.989-10.338-5.606-17.703
					C2504.159,1656.505,2495.099,1658.107,2490.403,1647.445z"/>
				
					<linearGradient id="SVGID_00000037651909083598724300000015664462750187862972_" gradientUnits="userSpaceOnUse" x1="-956.4509" y1="49.4355" x2="-882.3113" y2="49.4355" gradientTransform="matrix(-0.6319 -0.775 -0.775 0.6319 1969.931 932.0036)">
					<stop  offset="0.0036" style="stop-color:#F36F56"/>
					<stop  offset="1" style="stop-color:#FFC444"/>
				</linearGradient>
				<path style="fill:url(#SVGID_00000037651909083598724300000015664462750187862972_);" d="M2537.276,1696.568
					c0,0-17.736,18.006-42.846,10.366c-22.481-6.842-13.816-58.822,3.315-66.268c5.716-2.483,15.811-1.702,23.213,2.376
					c4.372,2.408,5.5,4.724,12.719,8.522c6.659,3.503,8.847,3.186,10.564,5.49c2.149,2.881,2.814,8.865-5.167,22.783
					c5.389-3.388,11.015-3.855,14.309-1.237c0.524,0.419,1.842,1.853,2.346,3.676
					C2557.55,1688.872,2550.458,1695.087,2537.276,1696.568z"/>
				
					<linearGradient id="SVGID_00000124871253177774746460000001728430407646598279_" gradientUnits="userSpaceOnUse" x1="1852.2615" y1="874.3428" x2="1792.9401" y2="723.6769" gradientTransform="matrix(0.9727 0.232 -0.232 0.9727 932.1477 496.2879)">
					<stop  offset="0" style="stop-color:#311944"/>
					<stop  offset="1" style="stop-color:#6B3976"/>
				</linearGradient>
				<path style="fill:url(#SVGID_00000124871253177774746460000001728430407646598279_);" d="M2545.994,1654.232
					c-1.294,0.564,1.108,5.462-0.005,11.334c-2.159,11.401-16.759,22.267-28.682,20.683c-7.049-0.938-7.968-5.534-19.075-9.409
					c-6.877-2.4-12.957-2.88-16.84-2.94c-6.483,11.538-6.009,24.669,0.92,32.334c7.463,8.254,19.716,7.184,24.84,6.737
					c3.429-0.3,14.407-1.239,21.929-9.341c7.839-8.442,3.767-15.593,11.683-20.69c3.993-2.571,8.552-3.02,14.171-8.493
					c1.526-1.486,2.634-2.859,3.333-3.792C2553.84,1663.031,2547.867,1653.418,2545.994,1654.232z"/>
				
					<linearGradient id="SVGID_00000014595089877352931850000002359765261151418256_" gradientUnits="userSpaceOnUse" x1="-921.1776" y1="68.7032" x2="-906.4848" y2="68.7032" gradientTransform="matrix(-0.6319 -0.775 -0.775 0.6319 1969.931 932.0036)">
					<stop  offset="0.0036" style="stop-color:#F36F56"/>
					<stop  offset="1" style="stop-color:#FFC444"/>
				</linearGradient>
				<path style="fill:url(#SVGID_00000014595089877352931850000002359765261151418256_);" d="M2488.603,1680.433
					c0,0,4.328,3.732,12.96,5.252c0.42,0.075,0.847,0.303,0.85,0.53c0.007,0.854-6.311,3.196-11.014,0.598
					c-3.341-1.845-5.33-5.882-4.646-6.631C2487.042,1679.866,2487.841,1680.105,2488.603,1680.433z"/>
			</g>
			<g>
				
					<linearGradient id="SVGID_00000101080376485813515370000002092615150494077828_" gradientUnits="userSpaceOnUse" x1="3557.949" y1="2142.7781" x2="4064.0417" y2="2142.7781" gradientTransform="matrix(-1 0 0 1 6265.4048 0)">
					<stop  offset="0" style="stop-color:#444B8C"/>
					<stop  offset="0.9964" style="stop-color:#26264F"/>
				</linearGradient>
				<path style="fill:url(#SVGID_00000101080376485813515370000002092615150494077828_);" d="M2678.841,2014.512l28.56,260.041
					c0.985,8.972-11.577,22.34-20.593,21.913l-418.973-25.721c-6.883-0.326-12.615-5.393-13.782-12.186l-52.585-251.152
					c-1.57-9.141,14.86-18.58,24.131-18.32l439.055,12.345C2671.984,2001.638,2678.041,2007.221,2678.841,2014.512z"/>
				
					<linearGradient id="SVGID_00000112600094018461751770000006621080791576763305_" gradientUnits="userSpaceOnUse" x1="3567.4902" y1="2147.5459" x2="4064.4888" y2="2147.5459" gradientTransform="matrix(-1 0 0 1 6265.4048 0)">
					<stop  offset="0" style="stop-color:#444B8C"/>
					<stop  offset="0.9964" style="stop-color:#26264F"/>
				</linearGradient>
				<path style="fill:url(#SVGID_00000112600094018461751770000006621080791576763305_);" d="M2669.265,2022.094l28.559,260.041
					c0.986,8.973-6.278,16.703-15.295,16.276l-424.271-20.085c-6.884-0.326-12.615-5.394-13.782-12.185l-43.345-252.301
					c-1.571-9.141,5.619-17.431,14.89-17.171l439.056,12.345C2662.409,2009.22,2668.465,2014.804,2669.265,2022.094z"/>
			</g>
			
				<linearGradient id="SVGID_00000085958225564580151490000015096388178377725365_" gradientUnits="userSpaceOnUse" x1="3567.4897" y1="2153.2742" x2="4026.9089" y2="2153.2742" gradientTransform="matrix(-1 0 0 1 6265.4048 0)">
				<stop  offset="0" style="stop-color:#444B8C"/>
				<stop  offset="0.9964" style="stop-color:#26264F"/>
			</linearGradient>
			<path style="opacity:0.3;fill:url(#SVGID_00000085958225564580151490000015096388178377725365_);" d="M2420.134,2217.393
				c37.045-15.702,23.971-45.643,67.717-82.953c57.711-49.219,116.534-27.875,137.127-66.024
				c6.413-11.882,9.475-30.371-1.695-60.295l31.793,0.894c7.332,0.206,13.387,5.79,14.188,13.08l28.56,260.041
				c0.985,8.972-6.28,16.703-15.296,16.276l-424.271-20.085c-6.884-0.325-12.615-5.393-13.782-12.185l-5.982-34.816
				c12.873-7.163,28.257-13.677,46.204-17.319C2346.944,2201.382,2377.485,2235.469,2420.134,2217.393z"/>
		</g>
		<g>
			<path style="fill:#FFFFFF;" d="M2420.02,1950.546c0,8.892-7.208,16.101-16.101,16.101s-16.101-7.208-16.101-16.101
				s7.208-16.101,16.101-16.101S2420.02,1941.653,2420.02,1950.546z"/>
			<path style="fill:#FFFFFF;" d="M2403.919,1815.591c-33.64,0-64.4,12.314-88.032,32.674c-4.849,4.178-5.197,11.565-0.671,16.091
				l0.454,0.454c4.027,4.027,10.496,4.321,14.806,0.598c19.703-17.019,45.363-27.326,73.442-27.326
				c28.08,0,53.74,10.306,73.442,27.326c4.31,3.722,10.779,3.428,14.806-0.598l0.454-0.454c4.526-4.526,4.178-11.913-0.671-16.091
				C2468.32,1827.905,2437.56,1815.591,2403.919,1815.591z"/>
			<path style="fill:#FFFFFF;" d="M2403.919,1853.078c-23.24,0-44.567,8.147-61.311,21.727c-5.011,4.064-5.33,11.613-0.767,16.175
				l0.078,0.078c3.998,3.998,10.326,4.218,14.73,0.671c12.935-10.416,29.37-16.659,47.271-16.659
				c17.901,0,34.335,6.242,47.271,16.659c4.404,3.547,10.732,3.327,14.73-0.671l0.078-0.078c4.562-4.562,4.244-12.111-0.767-16.175
				C2448.486,1861.225,2427.159,1853.078,2403.919,1853.078z"/>
			<path style="fill:#FFFFFF;" d="M2368.658,1917.798c3.958,3.958,10.098,4.404,14.784,1.343c5.886-3.846,12.92-6.082,20.477-6.082
				s14.591,2.236,20.477,6.082c4.686,3.061,10.826,2.615,14.784-1.343l0.051-0.051c4.852-4.852,4.089-12.92-1.579-16.787
				c-9.61-6.556-21.221-10.393-33.733-10.393c-12.512,0-24.123,3.837-33.733,10.393c-5.668,3.867-6.431,11.935-1.58,16.787
				L2368.658,1917.798z"/>
		</g>
		<g>
			
				<linearGradient id="SVGID_00000134221094531866627310000002892300794433637783_" gradientUnits="userSpaceOnUse" x1="4125.3853" y1="531.2368" x2="3897.906" y2="749.882" gradientTransform="matrix(-1 0 0 1 6399.769 0)">
				<stop  offset="0" style="stop-color:#311944"/>
				<stop  offset="1" style="stop-color:#A03976"/>
			</linearGradient>
			<path style="fill:url(#SVGID_00000134221094531866627310000002892300794433637783_);" d="M2728.275,1553.603
				c20.067,0.581,39.64-4.476,56.594-14.637c51.654-30.965,127.978-82.099,196.645-149.036
				c87.132-84.94,137.194-171.28,148.148-256.064l0.171-1.329l2.126-361.769c0-71.497-46.634-129.533-134.187-167.669
				c-72.336-31.507-168.212-47.118-269.498-44.187c-100.108,2.898-192.74,23.553-261.303,57.97
				c-81.502,40.913-124.266,98.409-124.266,166.576l1.939,345.673l0.157,1.271c10.01,81.189,56.071,165.11,137.482,249.974
				c65.299,68.066,139.089,122.007,189.766,155.429C2688.815,1546.864,2708.253,1553.024,2728.275,1553.603z"/>
			
				<linearGradient id="SVGID_00000060713622682461511790000014930972135721655972_" gradientUnits="userSpaceOnUse" x1="3504.9939" y1="1250.9374" x2="3116.3542" y2="1898.6691" gradientTransform="matrix(-1 0 0 1 6399.769 0)">
				<stop  offset="0" style="stop-color:#FF9085"/>
				<stop  offset="1" style="stop-color:#FB6FBB"/>
			</linearGradient>
			<path style="fill:url(#SVGID_00000060713622682461511790000014930972135721655972_);" d="M2708.409,1553.603
				c19.802,0.581,39.116-4.476,55.847-14.637c50.972-30.965,126.288-82.099,194.047-149.036
				c85.98-84.94,135.381-171.28,146.189-256.064l0.17-1.329l2.097-361.769c0-71.497-46.017-129.533-132.413-167.669
				c-71.381-31.507-165.989-47.118-265.938-44.187c-98.785,2.898-190.193,23.553-257.85,57.97
				c-80.427,40.913-122.624,98.409-122.624,166.576l1.914,345.673l0.155,1.271c9.877,81.189,55.33,165.11,135.666,249.974
				c64.437,68.066,137.251,122.007,187.259,155.429C2669.47,1546.864,2688.652,1553.024,2708.409,1553.603z"/>
			
				<linearGradient id="SVGID_00000089569863188781913290000018436870028381828736_" gradientUnits="userSpaceOnUse" x1="3859.3086" y1="1301.135" x2="3231.3118" y2="38.3628" gradientTransform="matrix(-1 0 0 1 6399.769 0)">
				<stop  offset="0" style="stop-color:#FF9085"/>
				<stop  offset="1" style="stop-color:#FB6FBB"/>
			</linearGradient>
			<path style="fill:url(#SVGID_00000089569863188781913290000018436870028381828736_);" d="M3082.873,771.028l-2.112,359.941
				c-23.693,183.652-239.525,332.341-333.527,388.834c-26.928,16.182-61.357,15.224-88.095-2.371
				c-92.04-60.564-296.051-213.036-317.848-389.609l-1.936-344.721C2339.354,527.35,3082.873,503.969,3082.873,771.028z"/>
			
				<linearGradient id="SVGID_00000132788617654170147760000009661322216476511416_" gradientUnits="userSpaceOnUse" x1="3388.1648" y1="1056.1594" x2="3994.5288" y2="1056.1594" gradientTransform="matrix(-1 0 0 1 6399.769 0)">
				<stop  offset="0" style="stop-color:#311944"/>
				<stop  offset="1" style="stop-color:#893976"/>
			</linearGradient>
			<path style="fill:url(#SVGID_00000132788617654170147760000009661322216476511416_);" d="M2703.074,1464.322
				c1.723,0.04,4.331-0.246,6.966-1.844c38.705-23.438,113.733-72.532,179.006-136.646
				c70.503-69.255,111.166-136.587,120.49-199.826l2.068-353.981c-0.086-33.964-26.972-63.033-79.674-86.291
				c-58.834-25.966-142.385-39.591-228.856-37.537c-85.608,2.032-166.722,19.266-222.916,47.151
				c-49.707,24.665-74.837,53.742-74.917,86.531l1.927,341.725c8.703,61.196,46.867,127.168,113.875,196.517
				c63.005,65.206,136.603,116.896,175.072,142.032C2698.746,1463.87,2701.352,1464.281,2703.074,1464.322z"/>
			<path style="fill:#FFFFFF;" d="M2711.906,1440.126c39.088-24.074,108.594-70.56,169.237-130.242
				c66.257-65.207,104.6-127.78,113.614-185.678l2.052-351.926c-0.061-24.284-22.383-46.56-66.177-65.949
				c-55.733-24.678-135.585-37.682-218.725-35.816c-82.343,1.849-159.956,18.112-213.293,44.502
				c-41.441,20.504-62.406,42.87-62.464,66.555l1.924,340.469c8.456,56.175,44.623,117.61,107.866,182.944
				C2604.659,1365.644,2672.997,1414.421,2711.906,1440.126z"/>
			<g>
				
					<linearGradient id="SVGID_00000080928497621540869370000001662509475255494838_" gradientUnits="userSpaceOnUse" x1="3553.8755" y1="1436.188" x2="3718.3816" y2="1052.3406" gradientTransform="matrix(-1 0 0 1 6399.769 0)">
					<stop  offset="0.0036" style="stop-color:#E38DDD"/>
					<stop  offset="1" style="stop-color:#9571F6"/>
				</linearGradient>
				<path style="fill:url(#SVGID_00000080928497621540869370000001662509475255494838_);" d="M2571.837,992.608l263.193-3.85
					c20.353-0.297,36.948,15.675,36.948,35.668v174.996c0,19.876-16.533,35.59-36.812,35.112l-262.271-6.174
					c-18.546-0.436-33.576-16.066-33.67-34.923l-0.828-165.998C2538.302,1008.479,2553.228,992.881,2571.837,992.608z"/>
				<path style="fill:#FFFFFF;" d="M2667.087,1090.258c-0.059-19.243,15.908-34.815,35.417-33.978
					c17.287,0.74,31.636,14.86,32.607,32.169c0.753,13.427-6.281,25.222-16.987,31.359c-4.55,2.608-6.799,7.921-5.901,13.1
					l7.611,43.908c0.969,5.59-3.332,10.61-9.001,10.516l-19.252-0.319c-5.626-0.092-9.905-5.222-8.976-10.749l7.355-43.769
					c0.879-5.227-1.716-10.336-6.277-13.077C2673.773,1113.462,2667.125,1102.629,2667.087,1090.258z"/>
				
					<linearGradient id="SVGID_00000030476852199042662070000014488141359021572534_" gradientUnits="userSpaceOnUse" x1="3494.6287" y1="1399.4907" x2="3657.9036" y2="1018.5161" gradientTransform="matrix(-1 0 0 1 6399.769 0)">
					<stop  offset="0.0036" style="stop-color:#E38DDD"/>
					<stop  offset="1" style="stop-color:#9571F6"/>
				</linearGradient>
				<path style="fill:url(#SVGID_00000030476852199042662070000014488141359021572534_);" d="M2575.514,975.27
					c7.863-0.137,14.224-6.77,14.19-14.816l-0.159-37.892c-0.16-38.057,30.214-70.181,68.125-71.585l85.898-3.182
					c39.439-1.461,71.916,29.466,71.949,68.916l0.033,39.277c0.007,8.34,6.89,14.98,15.395,14.831
					c8.527-0.149,15.453-7.061,15.449-15.442l-0.015-39.466c-0.022-56.418-46.578-100.445-102.869-98.094l-85.935,3.59
					c-53.829,2.248-96.741,47.977-96.49,101.891l0.175,37.718C2561.298,969.026,2567.671,975.406,2575.514,975.27z"/>
			</g>
		</g>
	</g>
</g>
</svg>
